<svg width="700" height="444" viewBox="0 0 700 444" fill="none" xmlns="http://www.w3.org/2000/svg">
<path opacity="0.8" d="M641.448 443.339C671.688 395.096 702.853 356.504 699.597 288.118C696.808 229.51 630.648 212.587 613.083 187.649C591.586 157.13 616.803 99.2761 578.672 47.1829C536.905 -9.86592 469.989 -8.60419 414.947 20.2044C374.754 41.2471 333.49 48.4942 293.083 36.0203C224.783 14.9359 131.22 9.04175 121.919 92.7641C115.448 150.983 83.7775 169.047 33.5456 208.116C-34.2149 260.819 17.3517 365.008 43.4726 438.647L641.448 443.339Z" fill="#CFCFCF"/>
<path d="M641.445 436.455H9.33039C7.59407 436.455 6.1865 437.862 6.1865 439.598V440.195C6.1865 441.932 7.59407 443.339 9.33039 443.339H641.445C643.182 443.339 644.589 441.932 644.589 440.195V439.598C644.589 437.862 643.182 436.455 641.445 436.455Z" fill="#8C939D"/>
<path d="M405.075 183.272C406.275 187.348 406.239 191.688 404.973 195.744C403.706 199.8 401.265 203.389 397.958 206.058C394.652 208.726 390.628 210.354 386.397 210.736C382.165 211.118 377.915 210.236 374.184 208.203C370.453 206.169 367.409 203.075 365.437 199.311C363.465 195.548 362.653 191.284 363.104 187.059C363.556 182.834 365.249 178.837 367.972 175.575C370.694 172.313 374.323 169.931 378.399 168.731C381.105 167.934 383.942 167.678 386.747 167.977C389.553 168.276 392.272 169.126 394.749 170.476C397.226 171.826 399.413 173.651 401.185 175.847C402.956 178.042 404.278 180.566 405.075 183.272Z" fill="white"/>
<path d="M387.843 205.683L386.686 201.758C384.421 202.383 381.881 202.37 380.237 201.799L380.403 198.932C382.388 199.524 384.501 199.532 386.49 198.955C389.251 198.142 390.661 195.999 389.994 193.783C389.366 191.645 387.46 190.77 384.241 190.451C379.809 190.063 376.845 188.997 375.849 185.616C374.898 182.391 376.47 179.265 379.874 177.631L378.719 173.705L381.128 172.996L382.239 176.765C384.585 176.155 386.371 176.309 387.692 176.638L387.476 179.49C385.736 179.044 383.907 179.085 382.189 179.61C379.196 180.491 378.597 182.61 379.061 184.166C379.655 186.187 381.391 186.773 385.184 187.177C389.668 187.631 392.286 189.057 393.305 192.516C394.207 195.587 392.916 199.091 389.108 200.931L390.299 204.974L387.843 205.683Z" fill="#E3EAFF"/>
<path d="M356.905 234.08L330.967 252.466L249.408 310.284L240.962 316.27L247.39 325.417L283.055 376.165L345.422 331.864L377.171 309.312L377.546 309.049L380.761 268.027L356.905 234.08Z" fill="#9C9C9C"/>
<path d="M375.94 282.602L359.793 259.625C357.119 261.504 353.808 262.244 350.589 261.682C347.369 261.121 344.504 259.303 342.625 256.63L267.025 310.472C268.904 313.146 269.644 316.458 269.082 319.677C268.519 322.897 266.701 325.762 264.027 327.641L280.174 350.618C282.848 348.739 286.159 347.999 289.379 348.561C292.599 349.122 295.463 350.94 297.343 353.613L372.943 299.771C372.012 298.447 371.351 296.952 370.998 295.373C370.645 293.793 370.607 292.16 370.885 290.565C371.164 288.971 371.753 287.447 372.621 286.081C373.488 284.714 374.616 283.532 375.94 282.602Z" fill="#1C1B2D"/>
<path d="M340.119 291.781C337.793 288.47 334.537 285.924 330.763 284.464C326.989 283.004 322.867 282.695 318.918 283.578C314.969 284.461 311.37 286.494 308.577 289.422C305.784 292.35 303.922 296.041 303.226 300.027C302.531 304.013 303.033 308.116 304.669 311.817C306.305 315.518 309.002 318.65 312.419 320.818C315.835 322.986 319.818 324.093 323.863 323.997C327.909 323.902 331.835 322.609 335.145 320.282C339.584 317.162 342.602 312.406 343.535 307.061C344.467 301.716 343.239 296.22 340.119 291.781Z" fill="#9C9C9C"/>
<path d="M380.761 268.027L357.671 290.107L377.171 309.312L377.499 309.635L377.546 309.049L380.761 268.027Z" fill="#9C9C9C"/>
<g style="mix-blend-mode:color-burn" opacity="0.2">
<path d="M369.027 315.037L357.671 290.107L377.171 309.312L369.027 315.037Z" fill="#193F1E"/>
</g>
<g style="mix-blend-mode:color-burn" opacity="0.2">
<path d="M380.761 268.027L357.671 290.107L379.178 265.777L380.761 268.027Z" fill="#193F1E"/>
</g>
<g style="mix-blend-mode:color-burn" opacity="0.2">
<path d="M330.969 252.466L249.408 310.284L247.382 325.417L283.047 376.165L345.414 331.864L342.228 319.797C341.024 315.237 332.943 313.225 322.708 314.38L330.969 252.466Z" fill="#193F1E"/>
</g>
<path d="M258.656 210.742L236.077 380.19L308.642 389.859L331.221 220.411L258.656 210.742Z" fill="#9C9C9C"/>
<path d="M307.239 229.664L279.403 225.952C278.971 229.192 277.27 232.127 274.674 234.113C272.078 236.099 268.8 236.972 265.56 236.541L249.486 357.122C252.726 357.555 255.661 359.256 257.646 361.852C259.632 364.449 260.504 367.727 260.073 370.967L287.911 374.674C288.344 371.435 290.045 368.5 292.641 366.515C295.237 364.53 298.515 363.657 301.754 364.088L317.828 243.507C316.224 243.293 314.677 242.766 313.277 241.955C311.876 241.143 310.65 240.064 309.666 238.779C308.683 237.493 307.962 236.027 307.546 234.463C307.129 232.899 307.025 231.268 307.239 229.664Z" fill="#1C1B2D"/>
<path d="M305.031 305.1C307.278 294.027 300.123 283.228 289.049 280.981C277.976 278.735 267.178 285.89 264.931 296.963C262.684 308.037 269.839 318.835 280.913 321.082C291.986 323.329 302.784 316.173 305.031 305.1Z" fill="#9C9C9C"/>
<path d="M309.687 320.245L239.963 338.647L258.644 409.432L328.368 391.03L315.221 341.218C329.15 337.484 339.181 329.839 337.661 324.08C336.141 318.321 323.641 316.619 309.687 320.248V320.245Z" fill="#9C9C9C"/>
<path d="M259.22 344.816L272.36 394.618L350.736 373.939L337.596 324.137L259.22 344.816Z" fill="#1C1B2D"/>
<path d="M310.367 375.89C318.837 370.402 321.254 359.086 315.766 350.616C310.279 342.146 298.963 339.729 290.493 345.217C282.023 350.705 279.606 362.02 285.094 370.49C290.582 378.96 301.897 381.378 310.367 375.89Z" fill="#9C9C9C"/>
<g style="mix-blend-mode:color-burn" opacity="0.2">
<path d="M309.687 320.245L302.544 322.13L321.225 392.915L353.576 384.374L337.674 324.08C336.154 318.319 323.654 316.619 309.7 320.248L309.687 320.245Z" fill="#193F1E"/>
</g>
<path d="M337.658 324.08C339.178 329.838 329.147 337.487 315.218 341.217L333.899 411.992C347.828 408.261 357.859 400.613 356.337 394.854L337.658 324.08Z" fill="#9C9C9C"/>
<path d="M341.029 336.854C341.702 339.401 339.986 342.25 336.835 344.463C337.768 348.394 335.594 352.318 331.905 353.293H331.889L341.334 389.082H341.352C344.741 388.188 348.242 390.089 349.666 393.41C352.862 391.189 354.619 388.316 353.936 385.748L341.029 336.854Z" fill="#1C1B2D"/>
<path d="M254.723 436.267L152.145 436.332C148.298 436.334 144.488 435.579 140.933 434.109C137.378 432.639 134.147 430.483 131.425 427.764C128.704 425.045 126.544 421.817 125.07 418.264C123.596 414.71 122.836 410.901 122.834 407.054L122.675 156.038C122.672 152.191 123.427 148.381 124.897 144.826C126.366 141.271 128.522 138.04 131.241 135.318C133.959 132.595 137.187 130.435 140.741 128.961C144.294 127.486 148.103 126.726 151.95 126.724L254.528 126.659C258.375 126.656 262.184 127.412 265.739 128.882C269.294 130.351 272.525 132.507 275.247 135.226C277.969 137.944 280.128 141.172 281.603 144.725C283.077 148.278 283.837 152.087 283.839 155.934L283.998 406.952C284.001 410.8 283.246 414.61 281.776 418.165C280.307 421.72 278.151 424.951 275.432 427.673C272.714 430.395 269.486 432.555 265.933 434.03C262.379 435.504 258.57 436.264 254.723 436.267Z" fill="#1C1B2D"/>
<path d="M255.779 431.249L151.082 431.314C148.376 431.316 145.696 430.785 143.195 429.751C140.694 428.717 138.422 427.201 136.508 425.288C134.593 423.376 133.075 421.105 132.039 418.605C131.002 416.105 130.469 413.425 130.469 410.719L130.308 154.203C130.305 151.497 130.836 148.817 131.87 146.316C132.904 143.816 134.42 141.543 136.333 139.629C138.246 137.714 140.517 136.196 143.017 135.16C145.516 134.124 148.196 133.59 150.902 133.59L255.599 133.525C258.305 133.523 260.985 134.054 263.486 135.088C265.987 136.122 268.259 137.638 270.173 139.551C272.088 141.463 273.606 143.734 274.642 146.234C275.678 148.734 276.212 151.414 276.212 154.12L276.373 410.636C276.376 413.342 275.845 416.022 274.811 418.523C273.777 421.023 272.261 423.296 270.348 425.21C268.435 427.124 266.164 428.643 263.664 429.679C261.165 430.715 258.485 431.249 255.779 431.249Z" fill="#8C939D"/>
<path d="M121.731 208.799C121.13 208.799 120.534 208.682 119.979 208.452C119.423 208.222 118.919 207.885 118.493 207.46C118.068 207.035 117.731 206.531 117.501 205.975C117.271 205.42 117.153 204.825 117.153 204.224V180.527C117.153 179.926 117.272 179.332 117.502 178.777C117.732 178.222 118.069 177.718 118.495 177.293C118.92 176.869 119.424 176.532 119.98 176.303C120.535 176.074 121.13 175.956 121.731 175.957C122.943 175.957 124.105 176.439 124.962 177.296C125.819 178.153 126.301 179.315 126.301 180.527V204.224C126.302 204.824 126.184 205.419 125.954 205.974C125.725 206.529 125.389 207.034 124.964 207.458C124.54 207.883 124.036 208.22 123.481 208.45C122.926 208.68 122.332 208.799 121.731 208.799Z" fill="#1C1B2D"/>
<path d="M284.718 208.799C284.118 208.799 283.523 208.68 282.968 208.45C282.413 208.22 281.909 207.883 281.485 207.458C281.06 207.034 280.724 206.529 280.495 205.974C280.265 205.419 280.148 204.824 280.148 204.224V180.527C280.148 179.315 280.63 178.153 281.487 177.296C282.344 176.439 283.506 175.957 284.718 175.957C285.93 175.957 287.092 176.439 287.949 177.296C288.806 178.153 289.288 179.315 289.288 180.527V204.224C289.289 204.824 289.171 205.419 288.942 205.974C288.712 206.529 288.376 207.034 287.951 207.458C287.527 207.883 287.023 208.22 286.468 208.45C285.913 208.68 285.319 208.799 284.718 208.799Z" fill="#1C1B2D"/>
<path d="M533.375 431.249L428.677 431.314C425.971 431.316 423.291 430.785 420.791 429.751C418.29 428.717 416.018 427.201 414.103 425.288C412.189 423.376 410.67 421.105 409.634 418.605C408.598 416.105 408.065 413.425 408.065 410.719L407.903 154.203C407.901 151.497 408.432 148.817 409.466 146.316C410.5 143.816 412.016 141.543 413.929 139.629C415.841 137.714 418.112 136.196 420.612 135.16C423.112 134.124 425.791 133.59 428.498 133.59L533.195 133.525C535.901 133.523 538.581 134.054 541.082 135.088C543.582 136.122 545.855 137.638 547.769 139.551C549.683 141.463 551.202 143.734 552.238 146.234C553.274 148.734 553.807 151.414 553.807 154.12L553.969 410.636C553.971 413.342 553.441 416.022 552.407 418.523C551.373 421.023 549.856 423.296 547.944 425.21C546.031 427.124 543.76 428.643 541.26 429.679C538.76 430.715 536.081 431.249 533.375 431.249Z" fill="#8C939D"/>
<g clip-path="url(#clip0_27_928)">
<path d="M555 390.703V389.737L511.003 358L467 389.737V390.703H555Z" fill="#626868"/>
<path d="M552.729 429.371V390.62L511.003 361.194L469.271 390.62V429.371H552.729Z" fill="#E6E7E9"/>
<path d="M552.729 402.89H469.271V429.371H552.729V402.89Z" fill="#707676"/>
<path d="M469.824 403.507V429.371H474.015V410.309H493.121V429.371H532.638V409.894H550.658V428.736H552.245V403.507H469.824Z" fill="#626868"/>
<path d="M549.88 429.371H552.729V402.89H527.706V407.059H549.88V429.371Z" fill="#F5F6F8"/>
<path d="M472.12 429.371V407.059H493.861V402.89H469.271V429.371H472.12Z" fill="#F5F6F8"/>
<path d="M492.644 376.51L472.17 390.943V400.773H492.644V376.51Z" fill="#523D38"/>
<path d="M472.647 400.082V391.384L492.173 377.615V400.082H472.647Z" fill="#1C1B2D"/>
<path d="M473.099 392.378L492.173 378.94V377.615L472.647 391.384V400.082H473.099V392.378Z" fill="#F37A50"/>
<path d="M486.263 400.487V381.287L485.761 381.655V400.487H486.263Z" fill="#523D38"/>
<path d="M478.991 386.368V400.487H479.499V386.064L478.991 386.368Z" fill="#523D38"/>
<path d="M472.634 390.768L472.465 391.504H492.481V390.768H472.634Z" fill="#523D38"/>
<path d="M529.707 376.51L550.181 390.943V400.773H529.707V376.51Z" fill="#523D38"/>
<path d="M549.704 400.082V391.384L530.184 377.615V400.082H549.704Z" fill="#1C1B2D"/>
<path d="M530.674 379.336L549.704 392.756V391.384L530.184 377.615V400.082H530.674V379.336Z" fill="#F37A50"/>
<path d="M536.089 400.487V381.287L536.591 381.655V400.487H536.089Z" fill="#523D38"/>
<path d="M543.361 386.368V400.487H542.859V386.064L543.361 386.368Z" fill="#523D38"/>
<path d="M549.723 390.768L549.886 391.504H529.871V390.768H549.723Z" fill="#523D38"/>
<path d="M552.729 392.71V390.62L511.003 361.194L469.271 390.62V392.71L511.003 363.283L552.729 392.71Z" fill="#D3D3D3"/>
<path d="M529.632 375.111H492.644V429.371H529.632V375.111Z" fill="#F5F6F8"/>
<path d="M525.842 380.67H496.44V423.802H525.842V380.67Z" fill="#523D38"/>
<path d="M525.365 381.37H496.911V423.112H525.365V381.37Z" fill="#1C1B2D"/>
<path d="M497.463 382.64H525.365V381.37H496.911V423.103H497.463V382.64Z" fill="#F37A50"/>
<path d="M511.342 380.744H510.84V423.379H511.342V380.744Z" fill="#523D38"/>
<path d="M525.629 401.776H496.565V402.512H525.629V401.776Z" fill="#523D38"/>
<path d="M525.629 390.758H496.565V391.495H525.629V390.758Z" fill="#523D38"/>
<path d="M525.629 412.692H496.565V413.429H525.629V412.692Z" fill="#523D38"/>
<path d="M518.815 380.744H518.313V423.379H518.815V380.744Z" fill="#523D38"/>
<path d="M503.863 380.744H503.361V423.379H503.863V380.744Z" fill="#523D38"/>
<path d="M492.487 410.355H474.153V423.802H492.487V410.355Z" fill="#523D38"/>
<path d="M492.01 411.045H474.624V423.103H492.01V411.045Z" fill="#1C1B2D"/>
<path d="M475.082 412.159H492.01V411.045H474.624V423.103H475.082V412.159Z" fill="#F37A50"/>
<path d="M480.365 410.723H479.863V423.443H480.365V410.723Z" fill="#523D38"/>
<path d="M486.846 410.723H486.344V423.443H486.846V410.723Z" fill="#523D38"/>
<path d="M546.862 410.226H535.166V429.122H546.862V410.226Z" fill="#523D38"/>
<path d="M546.385 410.925H535.637V428.432H546.385V410.925Z" fill="#1C1B2D"/>
<path d="M536.095 412.03H546.385V410.925H535.637V428.432H536.095V412.03Z" fill="#F37A50"/>
<path d="M541.786 410.594H540.475V428.773H541.786V410.594Z" fill="#523D38"/>
<path d="M553.45 429.233H468.575V431.009H553.45V429.233Z" fill="#626868"/>
</g>
<path d="M429.545 130.724H429.546L532.121 130.659L532.121 130.659C535.443 130.656 538.733 131.308 541.802 132.577C544.872 133.846 547.662 135.708 550.012 138.055C552.363 140.402 554.228 143.19 555.501 146.258C556.774 149.326 557.43 152.615 557.433 155.936L557.592 406.955C557.594 410.277 556.942 413.567 555.673 416.637C554.404 419.707 552.542 422.497 550.194 424.847C547.847 427.198 545.059 429.063 541.991 430.336C538.923 431.609 535.634 432.265 532.312 432.267L429.736 432.332C426.414 432.334 423.124 431.682 420.054 430.412C416.985 429.143 414.195 427.282 411.844 424.934C409.494 422.587 407.629 419.799 406.356 416.731C405.083 413.663 404.426 410.374 404.424 407.052L404.265 156.036C404.265 156.036 404.265 156.036 404.265 156.036C404.263 152.714 404.915 149.424 406.185 146.354C407.454 143.284 409.316 140.494 411.663 138.144C414.011 135.794 416.798 133.929 419.866 132.655C422.935 131.382 426.224 130.726 429.545 130.724Z" stroke="#1C1B2D" stroke-width="8"/>
<path d="M399.319 208.799C398.718 208.799 398.124 208.68 397.569 208.45C397.014 208.22 396.51 207.883 396.086 207.458C395.661 207.034 395.325 206.529 395.095 205.974C394.866 205.419 394.748 204.824 394.749 204.224V180.527C394.749 179.315 395.23 178.153 396.087 177.296C396.944 176.439 398.107 175.957 399.319 175.957C399.919 175.957 400.514 176.075 401.068 176.304C401.623 176.534 402.127 176.871 402.552 177.295C402.976 177.719 403.313 178.223 403.543 178.778C403.773 179.332 403.891 179.927 403.891 180.527V204.224C403.892 204.824 403.774 205.419 403.544 205.974C403.314 206.529 402.978 207.034 402.553 207.459C402.128 207.883 401.624 208.22 401.069 208.45C400.514 208.68 399.919 208.799 399.319 208.799Z" fill="#1C1B2D"/>
<path d="M562.314 208.799C561.713 208.799 561.118 208.68 560.563 208.45C560.008 208.22 559.504 207.883 559.08 207.459C558.655 207.034 558.318 206.529 558.089 205.974C557.859 205.419 557.741 204.824 557.741 204.224V180.527C557.741 179.927 557.86 179.332 558.089 178.778C558.319 178.223 558.656 177.719 559.081 177.295C559.505 176.871 560.009 176.534 560.564 176.304C561.119 176.075 561.713 175.957 562.314 175.957C562.914 175.957 563.508 176.076 564.062 176.305C564.617 176.535 565.121 176.871 565.545 177.296C565.969 177.72 566.306 178.224 566.536 178.778C566.765 179.333 566.884 179.927 566.884 180.527V204.224C566.884 204.824 566.767 205.419 566.537 205.974C566.308 206.529 565.971 207.034 565.547 207.458C565.123 207.883 564.618 208.22 564.064 208.45C563.509 208.68 562.914 208.799 562.314 208.799Z" fill="#1C1B2D"/>
<path d="M399.319 243.848C398.107 243.848 396.944 243.367 396.087 242.51C395.23 241.653 394.749 240.49 394.749 239.278V215.584C394.747 214.983 394.864 214.388 395.093 213.832C395.322 213.276 395.658 212.77 396.083 212.345C396.507 211.919 397.012 211.581 397.567 211.351C398.122 211.12 398.718 211.002 399.319 211.002C400.531 211.002 401.695 211.483 402.552 212.341C403.41 213.198 403.891 214.361 403.891 215.574V239.273C403.892 239.874 403.774 240.469 403.545 241.024C403.315 241.579 402.978 242.084 402.554 242.509C402.129 242.934 401.625 243.271 401.07 243.501C400.515 243.73 399.92 243.848 399.319 243.848Z" fill="#1C1B2D"/>
<path d="M74.5856 420.313C71.1394 434.786 58.8219 426.83 61.3975 435.972C61.4989 436.301 61.7014 436.589 61.9761 436.796C62.2509 437.003 62.5838 437.118 62.9277 437.124L70.1618 437.401C70.8599 437.428 71.5484 437.23 72.1248 436.835C75.9412 434.228 78.5299 430.542 86.7728 430.094C86.7102 426.574 86.8692 421.551 85.7066 419.755L74.5856 420.313Z" fill="#3E3C5E"/>
<path d="M93.6498 318.754C93.6498 318.754 72.6123 350.84 69.7082 360.821C66.8042 370.803 72.8782 387.714 71.7807 421.799C78.3552 423.504 87.1221 422.036 87.1221 422.036C87.1221 422.036 92.3985 379.283 86.1915 369.189C95.4928 355 118.863 324.02 118.863 324.02L93.6498 318.754Z" fill="#141327"/>
<path d="M105.308 424.979C99.9531 432.278 86.5929 427.956 87.1273 437.737C107.38 437.414 115.803 437.458 115.803 437.458C115.756 435.211 115.302 429.88 114.815 427.797L105.308 424.979Z" fill="#3E3C5E"/>
<path d="M99.0512 312.266C99.0512 312.266 92.3437 364.617 93.8922 374.896C95.4407 385.175 100.24 393.22 100.409 427.32C107.044 428.782 117.182 430.094 117.182 430.094C117.182 430.094 121.457 388.965 112.664 377.641C115.156 360.858 127.033 318.647 127.033 318.647L99.0512 312.266Z" fill="#1C1B2D"/>
<path d="M64.6743 289.221L56.4965 280.05C56.4078 279.952 56.3001 279.873 56.18 279.819C56.0598 279.764 55.9298 279.734 55.7979 279.732L49.0643 279.693C48.8714 279.693 48.2822 280.754 48.4074 280.897L54.1764 286.022C54.202 286.053 54.2367 286.075 54.2754 286.085L64.1685 289.755C64.3797 289.82 64.8229 289.385 64.6743 289.221Z" fill="#C4204A"/>
<path d="M64.0487 289.836L56.2568 281.189C56.1688 281.091 56.0616 281.012 55.9419 280.958C55.8221 280.903 55.6924 280.873 55.5607 280.871L48.6186 280.749C48.5761 280.748 48.5342 280.76 48.4982 280.782C48.4622 280.805 48.4335 280.838 48.4158 280.876C48.3981 280.915 48.3921 280.958 48.3985 281C48.4049 281.042 48.4234 281.082 48.4518 281.113L53.9262 287.161C53.9519 287.192 53.9865 287.214 54.0253 287.224L63.8089 290.193C63.8558 290.213 63.9082 290.216 63.957 290.202C64.0059 290.187 64.0481 290.156 64.0765 290.114C64.105 290.072 64.1177 290.021 64.1126 289.97C64.1076 289.919 64.085 289.872 64.0487 289.836Z" fill="#E62552"/>
<path d="M79.4449 297.722L73.8088 294.961C73.8088 294.961 68.251 289.336 67.4246 288.079C66.1889 287.453 63.8506 285.876 63.324 285.816C62.7876 285.801 62.2509 285.835 61.7207 285.918L64.3276 288.887C64.3276 288.887 63.0867 289.132 61.507 288.129C59.9272 287.125 57.1326 284.432 55.7718 284.953L55.287 285.383C55.287 285.383 54.4215 284.461 53.6081 284.802C52.7948 285.144 54.4137 289.208 59.007 293.512C59.312 294.659 60.8318 296.674 60.8318 296.674L70.1149 299.938L79.4449 297.722Z" fill="#F37A50"/>
<path d="M54.995 282.495C55.3261 282.824 55.8005 282.886 56.056 282.631C56.3115 282.375 56.2515 281.901 55.9205 281.57C55.5894 281.239 55.1149 281.179 54.8621 281.434C54.6092 281.69 54.6587 282.169 54.995 282.495Z" fill="#C4204A"/>
<path d="M105.683 256.286C104.012 258.454 117.106 260.811 118.863 256.306C120.62 251.802 117.604 239.416 117.604 239.416L105.662 241.95C105.662 241.95 107.86 253.468 105.683 256.286Z" fill="#F37A50"/>
<path d="M108.409 248.082C115.933 247.292 121.218 238.887 120.213 229.308C119.208 219.728 112.293 212.603 104.769 213.392C97.2445 214.182 91.9594 222.587 92.9646 232.167C93.9697 241.746 100.884 248.871 108.409 248.082Z" fill="#F37A50"/>
<path d="M97.4141 234.985C97.3186 235.25 97.1467 235.481 96.9199 235.649C96.6932 235.816 96.4218 235.913 96.1402 235.927C95.8585 235.94 95.5792 235.87 95.3375 235.724C95.0958 235.579 94.9027 235.365 94.7824 235.11C94.6622 234.855 94.6203 234.57 94.662 234.291C94.7037 234.012 94.8271 233.752 95.0167 233.543C95.2063 233.335 95.4535 233.187 95.7271 233.119C96.0007 233.05 96.2884 233.065 96.5538 233.16C96.9095 233.288 97.1998 233.553 97.3611 233.895C97.5224 234.237 97.5414 234.629 97.4141 234.985Z" fill="black"/>
<path d="M106.765 232.944C106.662 233.231 106.476 233.481 106.23 233.662C105.985 233.843 105.691 233.948 105.387 233.963C105.082 233.977 104.78 233.901 104.518 233.744C104.257 233.587 104.048 233.356 103.917 233.08C103.787 232.804 103.741 232.496 103.786 232.194C103.831 231.892 103.964 231.611 104.169 231.385C104.374 231.159 104.641 230.998 104.937 230.924C105.233 230.85 105.544 230.865 105.832 230.968C106.217 231.107 106.531 231.393 106.706 231.763C106.881 232.133 106.902 232.558 106.765 232.944Z" fill="black"/>
<path d="M100.136 234.688C99.8333 236.932 99.4136 239.695 99.4136 239.695C99.4136 239.695 100.889 241.26 103.337 240.175C102.112 240.217 100.78 239.982 100.579 238.421C100.378 236.859 100.136 234.688 100.136 234.688Z" fill="#DE623C"/>
<path d="M96.9944 231.729C96.9117 231.776 96.8183 231.8 96.7233 231.8C96.6282 231.8 96.5348 231.776 96.4522 231.729C96.0904 231.546 95.6717 231.51 95.2843 231.63C94.8932 231.778 94.5778 232.164 94.351 232.774C94.3293 232.846 94.2931 232.912 94.2448 232.969C94.1966 233.026 94.1371 233.072 94.0702 233.105C94.0033 233.138 93.9303 233.157 93.8558 233.161C93.7812 233.165 93.7067 233.154 93.6367 233.128C93.5667 233.102 93.5028 233.062 93.4488 233.01C93.3949 232.959 93.3521 232.896 93.323 232.828C93.294 232.759 93.2793 232.685 93.2799 232.61C93.2805 232.536 93.2964 232.462 93.3265 232.394C93.6706 231.468 94.2024 230.866 94.9089 230.6C95.2475 230.49 95.6044 230.449 95.9591 230.477C96.3139 230.506 96.6595 230.604 96.9761 230.767C97.1033 230.837 97.1975 230.954 97.2381 231.094C97.2787 231.233 97.2623 231.383 97.1925 231.51C97.1473 231.599 97.0789 231.675 96.9944 231.729Z" fill="#020205"/>
<path d="M104.108 230.17C104.202 230.191 104.3 230.186 104.392 230.157C104.483 230.127 104.565 230.074 104.63 230.003C104.913 229.714 105.295 229.544 105.699 229.526C106.118 229.526 106.543 229.787 106.958 230.308C107.003 230.366 107.059 230.415 107.123 230.451C107.187 230.487 107.258 230.51 107.331 230.519C107.404 230.527 107.478 230.52 107.549 230.499C107.619 230.478 107.685 230.443 107.741 230.396C107.798 230.349 107.845 230.291 107.878 230.225C107.912 230.16 107.932 230.088 107.938 230.015C107.943 229.942 107.934 229.868 107.91 229.798C107.886 229.728 107.849 229.664 107.8 229.609C107.172 228.851 106.47 228.455 105.714 228.439C105.359 228.447 105.008 228.525 104.683 228.668C104.358 228.812 104.064 229.018 103.819 229.276C103.755 229.347 103.71 229.434 103.69 229.529C103.671 229.623 103.676 229.72 103.706 229.812C103.736 229.903 103.789 229.985 103.861 230.049C103.932 230.114 104.02 230.158 104.114 230.178L104.108 230.17Z" fill="#020205"/>
<path d="M117.417 235.389C112.464 231.241 113.83 224.901 113.83 224.901C111.426 225.058 110.753 226.085 110.753 226.085C108.819 223.866 109.291 221.776 109.291 221.776C104.077 221.207 102.555 224.904 98.5793 227.068C93.1336 230.045 85.3155 229.659 82.7269 222.73C82.6426 222.506 82.6239 222.263 82.6729 222.029C82.7219 221.795 82.8366 221.58 83.0035 221.409C83.1704 221.238 83.3827 221.118 83.6154 221.064C83.848 221.009 84.0915 221.022 84.3171 221.101C85.4219 221.485 86.6197 221.51 87.7399 221.174C86.7272 220.447 85.9692 219.42 85.5736 218.238C85.5054 218.005 85.5062 217.757 85.5758 217.525C85.6455 217.292 85.781 217.085 85.9661 216.928C86.1511 216.77 86.3777 216.67 86.6185 216.639C86.8593 216.608 87.1039 216.647 87.3228 216.752C88.8061 217.435 91.3087 217.795 95.1122 215.952C97.6434 214.735 102.597 208.822 106.622 208.632C109.914 208.475 113.092 210.457 115.172 213.958C115.172 213.958 123.024 212.691 126.056 220.892C129.033 228.947 117.87 241.392 117.87 241.392C117.87 241.392 118.728 236.666 117.417 235.389Z" fill="#020205"/>
<path d="M100.743 243.848C100.674 243.804 100.619 243.74 100.586 243.665C100.552 243.59 100.541 243.507 100.555 243.426C100.568 243.345 100.605 243.27 100.661 243.21C100.716 243.149 100.789 243.107 100.868 243.087C103.445 242.496 105.931 241.565 108.261 240.316C108.334 240.279 108.416 240.263 108.498 240.272C108.579 240.281 108.656 240.314 108.719 240.366C108.783 240.418 108.829 240.487 108.853 240.565C108.878 240.644 108.878 240.727 108.856 240.806C108.543 241.898 107.719 243.673 105.608 244.479C103.496 245.285 101.697 244.458 100.743 243.848Z" fill="white"/>
<path d="M113.889 229.748C112.276 231.338 112.026 233.697 113.326 235.016C114.627 236.335 116.992 236.116 118.603 234.526C120.214 232.936 120.467 230.574 119.166 229.255C117.865 227.936 115.5 228.155 113.889 229.748Z" fill="#F37A50"/>
<path d="M115.456 234.338C115.384 234.311 115.318 234.268 115.263 234.213C114.481 233.387 114.291 232.388 114.771 231.507C115.01 231.074 115.379 230.725 115.826 230.511C116.272 230.297 116.775 230.227 117.263 230.311C117.329 230.321 117.392 230.345 117.448 230.381C117.505 230.417 117.553 230.463 117.591 230.518C117.629 230.573 117.655 230.635 117.669 230.7C117.682 230.766 117.682 230.833 117.669 230.899C117.655 230.964 117.629 231.026 117.591 231.081C117.553 231.136 117.504 231.183 117.448 231.218C117.392 231.254 117.329 231.278 117.263 231.288C117.197 231.299 117.129 231.296 117.065 231.28C116.783 231.241 116.497 231.287 116.242 231.413C115.988 231.539 115.778 231.739 115.639 231.987C115.378 232.469 115.493 233.03 115.98 233.53C116.056 233.611 116.103 233.714 116.113 233.825C116.123 233.935 116.096 234.045 116.036 234.138C115.976 234.231 115.886 234.302 115.782 234.338C115.677 234.374 115.564 234.374 115.459 234.338H115.456Z" fill="#DE623C"/>
<path d="M91.1288 322.597C100.469 324.502 117.263 327.792 126.144 324.33C129.505 319.505 130.357 292.219 130.357 292.219C131.329 264.132 127.961 259.964 120.365 250.553C117.177 252.018 109.2 253.267 105.691 253.295C105.691 253.295 97.7425 264.328 96.1914 272.341C94.6272 280.467 94.4422 294.912 94.2962 303.188C94.1345 312.378 92.3175 316.807 91.1288 322.597Z" fill="#9C9C9C"/>
<path d="M121.47 259.08C126.945 269.716 125.699 281.499 109.812 304.68C98.6862 303.71 96.5173 294.437 96.5173 294.437C96.5173 294.437 99.5752 282.925 103.556 268.444C107.537 253.963 119.08 254.424 121.47 259.08Z" fill="#3E3C5E"/>
<path d="M72.9016 292.219L96.7232 294.119C96.7232 294.119 106.94 292.255 109.812 304.68C104.698 308.66 91.5017 310.154 69.8516 302.117C72.143 298.999 72.9016 292.219 72.9016 292.219Z" fill="#3E3C5E"/>
<path d="M105.764 252.506L105.537 258.913L121.653 252.156L119.7 246.974L105.764 252.506Z" fill="white"/>
<path d="M283.555 61.3065C281.67 65.6141 278.55 69.266 274.589 71.8003C270.629 74.3347 266.006 75.6378 261.304 75.5448C256.603 75.4518 252.035 73.9669 248.178 71.2778C244.321 68.5888 241.348 64.8164 239.634 60.4376C237.921 56.0589 237.545 51.2704 238.553 46.6777C239.561 42.085 241.908 37.8944 245.298 34.6357C248.687 31.377 252.967 29.1966 257.596 28.3701C262.225 27.5437 266.995 28.1084 271.303 29.9927C274.164 31.2438 276.75 33.0463 278.914 35.2973C281.079 37.5482 282.778 40.2035 283.916 43.1114C285.054 46.0193 285.607 49.1229 285.546 52.2449C285.484 55.3668 284.807 58.446 283.555 61.3065Z" fill="#FABA23"/>
<path d="M279.666 59.6043C274.973 70.6235 260.956 74.7372 251.029 68.0792C247.909 66.0168 245.445 63.1041 243.928 59.6855C242.412 56.2669 241.906 52.4854 242.471 48.7883C244.316 36.1268 258.198 28.7154 269.611 33.8744C279.321 38.0402 284.058 49.7581 279.666 59.6043Z" fill="#FAD332"/>
<path d="M260.44 68.1913V64.148C258.117 64.1141 255.714 63.3999 254.311 62.404L255.263 59.7189C256.982 60.8295 258.985 61.4214 261.032 61.4238C263.873 61.4238 265.789 59.7711 265.784 57.4901C265.784 55.2873 264.22 53.9317 261.248 52.7377C257.161 51.1501 254.634 49.3149 254.624 45.8321C254.624 42.511 256.97 39.9823 260.649 39.3723V35.329H263.13V39.2133C265.531 39.2863 267.176 39.9223 268.344 40.5975L267.351 43.2435C265.823 42.3414 264.078 41.8753 262.304 41.8957C259.22 41.8957 258.065 43.7492 258.07 45.3499C258.07 47.4354 259.559 48.4781 263.047 49.8989C267.174 51.5699 269.259 53.6449 269.269 57.1981C269.269 60.3602 267.085 63.3295 262.966 64.0203V68.1913H260.44Z" fill="#FABA23"/>
<path d="M406.555 38.3065C404.67 42.6141 401.55 46.2659 397.589 48.8003C393.629 51.3347 389.006 52.6378 384.304 52.5448C379.603 52.4518 375.035 50.9669 371.178 48.2778C367.321 45.5888 364.348 41.8164 362.634 37.4376C360.921 33.0589 360.545 28.2704 361.553 23.6777C362.561 19.085 364.908 14.8944 368.298 11.6357C371.687 8.37698 375.967 6.19655 380.596 5.37012C385.225 4.54369 389.995 5.10836 394.303 6.99275C397.163 8.24412 399.75 10.0468 401.914 12.2978C404.078 14.5487 405.777 17.204 406.915 20.1118C408.053 23.0196 408.607 26.1231 408.545 29.245C408.483 32.3668 407.807 35.446 406.555 38.3065Z" fill="#FABA23"/>
<path d="M402.668 36.6016C397.976 47.6209 383.956 51.7346 374.032 45.0766C370.911 43.0149 368.446 40.1023 366.93 36.6835C365.413 33.2647 364.908 29.4828 365.473 25.7857C367.319 13.1241 381.201 5.71279 392.611 10.8718C402.324 15.0376 407.061 26.7555 402.668 36.6016Z" fill="#FAD332"/>
<path d="M383.44 45.1887V41.1454C381.12 41.1115 378.716 40.3999 377.311 39.4014L378.265 36.719C379.984 37.8283 381.986 38.4201 384.032 38.4239C386.876 38.4239 388.792 36.7685 388.784 34.4875C388.784 32.2847 387.22 30.9291 384.248 29.7377C380.16 28.1476 377.634 26.3123 377.624 22.8295C377.624 19.5084 379.97 16.9797 383.651 16.3697V12.3264H386.13L386.143 16.2081C388.544 16.2811 390.186 16.9171 391.357 17.5949L390.364 20.2383C388.837 19.3358 387.091 18.8705 385.317 18.8931C382.235 18.8931 381.081 20.744 381.083 22.3446C381.083 24.4301 382.574 25.4729 386.06 26.8936C390.186 28.5647 392.275 30.6397 392.285 34.1929C392.285 37.3524 390.1 40.3217 385.979 41.0125V45.1835L383.44 45.1887Z" fill="#FABA23"/>
<path d="M438.959 124.915C438.406 124.915 437.875 124.695 437.484 124.304C437.093 123.913 436.873 123.382 436.873 122.829C436.873 121.132 436.832 119.414 436.746 117.722C436.718 117.169 436.911 116.628 437.282 116.217C437.653 115.806 438.172 115.559 438.726 115.531C439.279 115.503 439.82 115.696 440.231 116.067C440.642 116.439 440.889 116.958 440.917 117.511C441.005 119.271 441.05 121.059 441.05 122.829C441.05 123.104 440.996 123.375 440.89 123.628C440.785 123.882 440.631 124.112 440.437 124.306C440.243 124.499 440.012 124.653 439.759 124.757C439.505 124.862 439.233 124.915 438.959 124.915Z" fill="#8C939D"/>
<path d="M437.742 109.206C437.245 109.205 436.764 109.028 436.387 108.705C436.009 108.382 435.759 107.934 435.682 107.443C435.148 104.04 434.436 100.666 433.55 97.3366C433.477 97.0712 433.457 96.7941 433.492 96.5211C433.527 96.2481 433.615 95.9847 433.752 95.7461C433.889 95.5075 434.072 95.2983 434.29 95.1307C434.509 94.9631 434.758 94.8403 435.024 94.7695C435.29 94.6986 435.567 94.6811 435.84 94.7179C436.112 94.7547 436.375 94.8451 436.613 94.9838C436.85 95.1226 437.058 95.3071 437.224 95.5265C437.39 95.746 437.511 95.9961 437.58 96.2625C438.506 99.7325 439.248 103.249 439.804 106.797C439.846 107.068 439.835 107.344 439.771 107.611C439.706 107.877 439.59 108.129 439.429 108.35C439.267 108.572 439.064 108.759 438.83 108.902C438.596 109.045 438.336 109.14 438.065 109.182C437.958 109.198 437.85 109.206 437.742 109.206ZM238.683 109.12C238.574 109.119 238.465 109.11 238.357 109.094C238.087 109.051 237.827 108.956 237.593 108.813C237.36 108.67 237.156 108.482 236.995 108.261C236.834 108.039 236.718 107.788 236.654 107.522C236.589 107.255 236.578 106.979 236.621 106.708C237.181 103.16 237.926 99.6442 238.853 96.1739C238.996 95.6395 239.345 95.1838 239.824 94.907C240.304 94.6303 240.873 94.5553 241.407 94.6984C241.942 94.8415 242.397 95.1911 242.674 95.6702C242.951 96.1493 243.026 96.7187 242.883 97.2531C241.992 100.581 241.277 103.954 240.74 107.357C240.663 107.848 240.414 108.295 240.037 108.618C239.66 108.941 239.18 109.119 238.683 109.12ZM432.311 88.846C431.889 88.8459 431.477 88.7178 431.13 88.4785C430.782 88.2393 430.515 87.9002 430.364 87.506C429.129 84.2883 427.726 81.1375 426.162 78.0665C425.922 77.5753 425.885 77.0096 426.059 76.4913C426.232 75.973 426.602 75.5434 427.089 75.295C427.576 75.0466 428.14 74.9993 428.662 75.1632C429.183 75.3271 429.619 75.6891 429.877 76.1714C431.509 79.3727 432.971 82.6575 434.259 86.0123C434.38 86.3282 434.423 86.669 434.383 87.0051C434.343 87.3413 434.223 87.6627 434.031 87.9416C433.839 88.2206 433.582 88.4487 433.283 88.6062C432.983 88.7638 432.65 88.8461 432.311 88.846ZM244.129 88.7678C243.79 88.7679 243.457 88.6856 243.157 88.528C242.858 88.3705 242.601 88.1424 242.41 87.8634C242.218 87.5845 242.097 87.2631 242.057 86.9269C242.017 86.5908 242.06 86.25 242.182 85.9341C243.471 82.5838 244.934 79.3033 246.566 76.1062C246.688 75.8571 246.858 75.6348 247.066 75.4521C247.274 75.2694 247.517 75.13 247.78 75.0422C248.042 74.9543 248.32 74.9197 248.596 74.9403C248.873 74.9609 249.142 75.0364 249.389 75.1623C249.636 75.2882 249.855 75.462 250.034 75.6736C250.213 75.8852 250.347 76.1303 250.431 76.3946C250.514 76.6589 250.543 76.9372 250.518 77.213C250.492 77.4889 250.412 77.7569 250.281 78.0014C248.717 81.0708 247.314 84.2198 246.079 87.4357C245.927 87.8288 245.659 88.1665 245.311 88.4043C244.963 88.6421 244.551 88.7688 244.129 88.7678ZM422.742 70.0713C422.394 70.0714 422.052 69.9846 421.746 69.8189C421.441 69.6532 421.182 69.4137 420.992 69.1224C419.112 66.2333 417.083 63.4437 414.913 60.7647C414.565 60.3347 414.402 59.784 414.46 59.2337C414.518 58.6835 414.792 58.1788 415.222 57.8307C415.652 57.4826 416.203 57.3195 416.753 57.3775C417.303 57.4354 417.808 57.7096 418.156 58.1396C420.416 60.9283 422.53 63.8328 424.488 66.8413C424.693 67.156 424.809 67.52 424.823 67.8949C424.838 68.2699 424.752 68.6419 424.573 68.9718C424.394 69.3017 424.13 69.5772 423.807 69.7694C423.485 69.9615 423.117 70.0631 422.742 70.0634V70.0713ZM253.707 70.0139C253.331 70.0139 252.962 69.9123 252.64 69.7201C252.317 69.5278 252.052 69.252 251.873 68.9216C251.694 68.5913 251.608 68.2188 251.623 67.8435C251.638 67.4681 251.755 67.1039 251.96 66.7892C253.92 63.7805 256.035 60.876 258.297 58.0875C258.65 57.6725 259.152 57.4122 259.694 57.3621C260.236 57.3121 260.777 57.4762 261.2 57.8195C261.623 58.1628 261.895 58.6579 261.957 59.1991C262.02 59.7402 261.868 60.2844 261.535 60.7152C259.366 63.3889 257.337 66.1733 255.456 69.0572C255.267 69.35 255.008 69.591 254.703 69.7581C254.397 69.9252 254.055 70.0132 253.707 70.0139ZM409.475 53.6975C409.201 53.6973 408.93 53.6432 408.676 53.5381C408.423 53.4329 408.193 53.2789 408 53.0849C405.563 50.6479 403.003 48.3386 400.328 46.1662C400.108 45.9961 399.924 45.7838 399.788 45.5417C399.651 45.2997 399.564 45.0327 399.532 44.7567C399.5 44.4806 399.524 44.2009 399.602 43.934C399.679 43.6672 399.81 43.4185 399.985 43.2027C400.16 42.9869 400.376 42.8083 400.622 42.6774C400.867 42.5464 401.136 42.4658 401.412 42.4403C401.689 42.4147 401.968 42.4447 402.233 42.5286C402.498 42.6124 402.744 42.7484 402.955 42.9285C405.744 45.191 408.412 47.5969 410.951 50.1365C411.243 50.4282 411.442 50.7999 411.522 51.2047C411.603 51.6094 411.561 52.029 411.404 52.4103C411.246 52.7916 410.978 53.1174 410.635 53.3465C410.291 53.5757 409.888 53.6978 409.475 53.6975ZM266.978 53.6506C266.566 53.6498 266.164 53.5272 265.821 53.2979C265.479 53.0687 265.212 52.7433 265.055 52.3627C264.897 51.982 264.856 51.5633 264.936 51.1592C265.016 50.7551 265.214 50.3838 265.505 50.0922C268.045 47.5528 270.715 45.1477 273.506 42.8868C273.718 42.7083 273.963 42.5739 274.228 42.4914C274.493 42.4088 274.771 42.3799 275.047 42.4062C275.323 42.4326 275.591 42.5136 275.835 42.6447C276.079 42.7757 276.295 42.9541 276.469 43.1695C276.644 43.3849 276.774 43.6328 276.851 43.8989C276.929 44.1651 276.952 44.4439 276.921 44.7193C276.889 44.9947 276.803 45.261 276.668 45.5027C276.532 45.7445 276.35 45.9567 276.131 46.1271C273.454 48.297 270.891 50.6046 268.454 53.0405C268.26 53.2341 268.03 53.3877 267.777 53.4923C267.523 53.597 267.252 53.6508 266.978 53.6506ZM393.107 40.4233C392.703 40.4235 392.308 40.3067 391.97 40.087C389.084 38.2067 386.101 36.4795 383.034 34.9123C382.541 34.6607 382.169 34.2236 381.998 33.6973C381.828 33.1711 381.874 32.5987 382.125 32.106C382.377 31.6134 382.814 31.241 383.34 31.0706C383.866 30.9002 384.439 30.9459 384.931 31.1975C388.131 32.8352 391.243 34.639 394.254 36.6016C394.63 36.8471 394.917 37.2076 395.072 37.6294C395.227 38.0512 395.241 38.5118 395.113 38.9425C394.985 39.3732 394.721 39.751 394.361 40.0197C394.001 40.2884 393.564 40.4336 393.114 40.4337L393.107 40.4233ZM283.357 40.3868C282.907 40.3876 282.469 40.2427 282.108 39.9739C281.747 39.705 281.483 39.3266 281.354 38.8952C281.226 38.4637 281.241 38.0024 281.397 37.5801C281.552 37.1578 281.84 36.7971 282.218 36.5521C285.231 34.5955 288.343 32.7969 291.543 31.1637C292.034 30.9242 292.6 30.8871 293.118 31.0604C293.636 31.2338 294.066 31.6037 294.314 32.0905C294.563 32.5774 294.61 33.1423 294.446 33.6637C294.282 34.185 293.92 34.6213 293.438 34.8785C290.368 36.4447 287.383 38.1711 284.494 40.0505C284.155 40.2702 283.761 40.387 283.357 40.3868ZM374.368 30.843C374.112 30.8431 373.859 30.7954 373.62 30.7022C370.404 29.4668 367.125 28.4008 363.798 27.5088C363.527 27.4435 363.272 27.3247 363.049 27.1595C362.825 26.9942 362.636 26.7859 362.494 26.5467C362.352 26.3075 362.259 26.0422 362.221 25.7666C362.183 25.491 362.201 25.2106 362.273 24.9418C362.345 24.6731 362.47 24.4214 362.641 24.2018C362.811 23.9821 363.024 23.7988 363.267 23.6627C363.51 23.5266 363.777 23.4404 364.053 23.4092C364.33 23.3781 364.61 23.4025 364.877 23.4812C368.347 24.4093 371.766 25.5205 375.119 26.8102C375.574 26.9846 375.954 27.313 376.192 27.7382C376.43 28.1634 376.512 28.6587 376.423 29.1379C376.334 29.6172 376.08 30.0501 375.705 30.3616C375.331 30.6731 374.858 30.8434 374.371 30.843H374.368ZM302.127 30.8117C301.639 30.8121 301.167 30.6418 300.792 30.3303C300.417 30.0188 300.163 29.5859 300.074 29.1066C299.986 28.6274 300.067 28.1322 300.306 27.7069C300.544 27.2817 300.923 26.9533 301.379 26.7789C304.734 25.4942 308.155 24.3856 311.626 23.4577C311.891 23.387 312.167 23.3692 312.438 23.4051C312.71 23.4411 312.972 23.5302 313.209 23.6673C313.446 23.8044 313.654 23.9869 313.82 24.2043C313.987 24.4218 314.109 24.6699 314.18 24.9345C314.25 25.1992 314.268 25.4751 314.232 25.7467C314.196 26.0182 314.107 26.28 313.97 26.5171C313.833 26.7542 313.65 26.962 313.433 27.1286C313.216 27.2951 312.967 27.4173 312.703 27.488C309.373 28.3754 306.092 29.4387 302.875 30.6736C302.636 30.7646 302.382 30.8115 302.127 30.8117ZM354.017 25.392C353.907 25.3923 353.797 25.3836 353.688 25.366C350.284 24.8322 346.855 24.4745 343.414 24.2945C342.861 24.2658 342.342 24.0186 341.971 23.6072C341.601 23.1958 341.408 22.654 341.437 22.1009C341.466 21.5477 341.713 21.0287 342.124 20.6579C342.536 20.287 343.078 20.0948 343.631 20.1235C347.216 20.3114 350.79 20.6847 354.337 21.2419C354.855 21.3244 355.322 21.5987 355.646 22.0101C355.971 22.4215 356.128 22.9399 356.088 23.4622C356.047 23.9845 355.812 24.4725 355.428 24.8291C355.044 25.1857 354.54 25.3848 354.017 25.3868V25.392ZM322.473 25.379C321.949 25.377 321.446 25.1779 321.062 24.8213C320.678 24.4647 320.442 23.9767 320.402 23.4544C320.362 22.932 320.519 22.4136 320.844 22.0022C321.168 21.5909 321.635 21.3166 322.153 21.2341C325.7 20.6795 329.274 20.3088 332.859 20.1235C333.133 20.1095 333.407 20.1495 333.665 20.2414C333.924 20.3332 334.162 20.4751 334.365 20.6588C334.569 20.8425 334.734 21.0646 334.852 21.3122C334.97 21.5599 335.038 21.8283 335.052 22.1022C335.066 22.376 335.026 22.65 334.934 22.9084C334.842 23.1668 334.7 23.4045 334.516 23.6081C334.333 23.8117 334.111 23.9771 333.863 24.0949C333.615 24.2127 333.347 24.2805 333.073 24.2945C329.631 24.4721 326.201 24.8271 322.797 25.3581C322.693 25.3781 322.587 25.3894 322.481 25.392L322.473 25.379Z" fill="#8C939D"/>
<path d="M237.45 124.915C236.897 124.915 236.367 124.695 235.975 124.304C235.584 123.913 235.365 123.382 235.365 122.829C235.365 121.062 235.409 119.271 235.5 117.511C235.528 116.958 235.775 116.439 236.186 116.067C236.389 115.884 236.627 115.742 236.885 115.65C237.143 115.558 237.417 115.517 237.691 115.531C237.965 115.545 238.234 115.613 238.481 115.73C238.729 115.848 238.951 116.013 239.135 116.217C239.319 116.42 239.461 116.658 239.553 116.916C239.645 117.175 239.685 117.448 239.671 117.722C239.585 119.414 239.541 121.132 239.541 122.829C239.541 123.104 239.487 123.375 239.382 123.628C239.276 123.882 239.122 124.112 238.928 124.306C238.734 124.499 238.503 124.653 238.25 124.757C237.996 124.862 237.724 124.915 237.45 124.915Z" fill="#8C939D"/>
<path d="M265.68 124.915C265.127 124.915 264.596 124.695 264.205 124.304C263.814 123.913 263.594 123.382 263.594 122.829C263.594 121.046 263.657 119.245 263.785 117.472C263.824 116.919 264.081 116.404 264.5 116.041C264.707 115.861 264.948 115.723 265.208 115.636C265.469 115.549 265.744 115.515 266.018 115.534C266.291 115.553 266.559 115.626 266.804 115.749C267.05 115.872 267.269 116.041 267.449 116.249C267.629 116.456 267.766 116.697 267.853 116.957C267.94 117.218 267.975 117.493 267.956 117.767C267.836 119.44 267.776 121.156 267.776 122.829C267.776 123.104 267.722 123.376 267.616 123.63C267.511 123.883 267.356 124.114 267.161 124.308C266.967 124.501 266.735 124.655 266.481 124.759C266.227 124.863 265.955 124.916 265.68 124.915Z" fill="#8C939D"/>
<path d="M267.33 109.464C267.181 109.463 267.033 109.448 266.887 109.417C266.619 109.359 266.366 109.248 266.141 109.092C265.915 108.936 265.723 108.737 265.575 108.507C265.427 108.276 265.326 108.019 265.277 107.749C265.228 107.479 265.233 107.203 265.292 106.935C266.046 103.462 267.048 100.048 268.292 96.7187C268.388 96.462 268.533 96.2266 268.72 96.0261C268.907 95.8256 269.132 95.6638 269.381 95.55C269.63 95.4363 269.9 95.3727 270.173 95.363C270.447 95.3533 270.72 95.3977 270.977 95.4935C271.234 95.5894 271.469 95.7349 271.67 95.9217C271.87 96.1085 272.032 96.333 272.146 96.5823C272.26 96.8316 272.323 97.1009 272.333 97.3748C272.343 97.6487 272.298 97.9218 272.202 98.1786C271.03 101.322 270.084 104.545 269.371 107.824C269.27 108.289 269.012 108.706 268.64 109.004C268.269 109.302 267.807 109.465 267.33 109.464ZM409.066 109.409C408.591 109.408 408.13 109.245 407.76 108.946C407.39 108.647 407.134 108.231 407.033 107.767C406.319 104.489 405.37 101.266 404.194 98.1238C404 97.6053 404.02 97.031 404.249 96.5272C404.479 96.0234 404.899 95.6314 405.418 95.4375C405.936 95.2435 406.511 95.2635 407.014 95.4931C407.518 95.7226 407.91 96.1429 408.104 96.6614C409.349 99.988 410.353 103.4 411.11 106.87C411.168 107.138 411.173 107.414 411.124 107.684C411.076 107.953 410.974 108.211 410.826 108.441C410.678 108.672 410.486 108.871 410.261 109.027C410.036 109.183 409.782 109.294 409.514 109.352C409.367 109.386 409.217 109.406 409.066 109.409ZM274.551 90.1181C274.189 90.1176 273.834 90.0228 273.519 89.8431C273.205 89.6634 272.943 89.405 272.759 89.0933C272.575 88.7817 272.475 88.4274 272.469 88.0655C272.464 87.7035 272.552 87.3463 272.726 87.029C274.435 83.9149 276.362 80.926 278.493 78.0848C278.825 77.6423 279.319 77.3498 279.866 77.2716C280.414 77.1933 280.97 77.3358 281.413 77.6677C281.855 77.9996 282.148 78.4936 282.226 79.0412C282.304 79.5887 282.162 80.1449 281.83 80.5874C279.817 83.2699 277.998 86.0925 276.387 89.0337C276.208 89.3651 275.942 89.6419 275.619 89.8347C275.295 90.0275 274.925 90.129 274.549 90.1286L274.551 90.1181ZM401.845 90.0816C401.472 90.081 401.106 89.9804 400.785 89.7901C400.464 89.5998 400.2 89.3269 400.02 88.9998C398.409 86.061 396.59 83.241 394.577 80.5613C394.255 80.1186 394.12 79.567 394.201 79.0256C394.283 78.4843 394.573 77.9966 395.011 77.6677C395.449 77.3389 395.998 77.1953 396.541 77.268C397.083 77.3407 397.576 77.6237 397.911 78.0561C400.042 80.8947 401.969 83.881 403.678 86.9925C403.852 87.3098 403.94 87.667 403.935 88.029C403.929 88.3909 403.829 88.7452 403.645 89.0568C403.461 89.3685 403.199 89.6269 402.885 89.8066C402.57 89.9863 402.215 90.0811 401.853 90.0816H401.845ZM286.934 73.6192C286.521 73.619 286.118 73.4965 285.775 73.2672C285.433 73.0379 285.165 72.712 285.008 72.3308C284.85 71.9497 284.809 71.5303 284.89 71.1258C284.97 70.7213 285.169 70.3497 285.461 70.0582C287.973 67.5491 290.658 65.2206 293.498 63.0901C293.717 62.9257 293.966 62.8062 294.232 62.7382C294.497 62.6702 294.773 62.6552 295.044 62.6939C295.315 62.7326 295.576 62.8244 295.812 62.9639C296.048 63.1035 296.253 63.2881 296.418 63.5072C296.582 63.7263 296.702 63.9756 296.77 64.2409C296.838 64.5062 296.853 64.7823 296.814 65.0534C296.775 65.3245 296.683 65.5853 296.544 65.821C296.404 66.0567 296.22 66.2625 296.001 66.4269C293.318 68.4394 290.782 70.639 288.409 73.0092C288.216 73.2028 287.986 73.3563 287.732 73.461C287.479 73.5657 287.208 73.6194 286.934 73.6192ZM389.452 73.5958C388.899 73.5955 388.37 73.3761 387.979 72.9858C385.605 70.6172 383.066 68.4193 380.383 66.4086C379.94 66.0771 379.647 65.5832 379.568 65.0357C379.489 64.4881 379.631 63.9317 379.963 63.4889C380.294 63.0461 380.788 62.7531 381.336 62.6744C381.883 62.5957 382.44 62.7377 382.883 63.0692C385.725 65.198 388.412 67.5257 390.925 70.0348C391.217 70.3263 391.415 70.6978 391.496 71.1023C391.577 71.5068 391.536 71.9262 391.378 72.3074C391.22 72.6885 390.953 73.0144 390.61 73.2437C390.268 73.4731 389.864 73.5956 389.452 73.5958ZM303.446 61.247C302.984 61.2457 302.536 61.0911 302.171 60.8075C301.807 60.5239 301.547 60.1273 301.432 59.68C301.317 59.2326 301.354 58.7598 301.537 58.3358C301.72 57.9117 302.038 57.5603 302.442 57.3367C305.557 55.6305 308.79 54.1494 312.116 52.905C312.635 52.7118 313.209 52.7324 313.712 52.9624C314.216 53.1925 314.607 53.613 314.8 54.1315C314.993 54.6501 314.973 55.2241 314.743 55.7274C314.513 56.2308 314.092 56.6221 313.574 56.8153C310.437 57.9866 307.388 59.3805 304.45 60.9863C304.142 61.1563 303.797 61.246 303.446 61.247ZM372.929 61.2287C372.58 61.2263 372.237 61.1367 371.931 60.9681C368.988 59.3614 365.934 57.9675 362.791 56.7971C362.273 56.6038 361.852 56.2125 361.622 55.7092C361.392 55.2059 361.372 54.6318 361.565 54.1133C361.758 53.5947 362.149 53.1742 362.653 52.9442C363.156 52.7142 363.73 52.6935 364.249 52.8867C367.578 54.1311 370.815 55.6121 373.933 57.3184C374.337 57.542 374.656 57.8934 374.839 58.3175C375.021 58.7416 375.058 59.2144 374.944 59.6617C374.829 60.1091 374.569 60.5056 374.204 60.7892C373.84 61.0728 373.391 61.2274 372.929 61.2287ZM322.768 54.0364C322.253 54.0365 321.756 53.8462 321.373 53.5021C320.99 53.158 320.748 52.6844 320.694 52.1724C320.639 51.6604 320.776 51.1464 321.077 50.7291C321.379 50.3118 321.824 50.0209 322.327 49.9123C325.798 49.1616 329.317 48.6589 332.859 48.4081C333.412 48.3691 333.958 48.5513 334.377 48.9148C334.796 49.2783 335.053 49.7932 335.092 50.3463C335.131 50.8995 334.949 51.4454 334.585 51.8642C334.222 52.2829 333.707 52.5401 333.154 52.5791C329.81 52.8151 326.487 53.2899 323.211 53.9999C323.065 54.0273 322.917 54.0395 322.768 54.0364ZM353.589 54.0233C353.44 54.0231 353.292 54.0073 353.146 53.9764C349.869 53.2703 346.547 52.7981 343.203 52.5635C342.929 52.5443 342.662 52.4714 342.416 52.3489C342.171 52.2264 341.951 52.0567 341.771 51.8494C341.408 51.431 341.225 50.8851 341.264 50.332C341.303 49.7789 341.559 49.2638 341.978 48.9001C342.396 48.5364 342.942 48.3538 343.495 48.3925C347.037 48.6406 350.556 49.1407 354.027 49.8888C354.53 49.9974 354.975 50.2881 355.277 50.7051C355.579 51.1221 355.715 51.6359 355.661 52.1476C355.607 52.6594 355.365 53.133 354.983 53.4774C354.6 53.8217 354.104 54.0124 353.589 54.0129V54.0233Z" fill="#8C939D"/>
<path d="M410.729 124.915C410.176 124.915 409.646 124.695 409.254 124.304C408.863 123.913 408.644 123.382 408.644 122.829C408.644 121.143 408.584 119.44 408.466 117.767C408.447 117.493 408.482 117.218 408.569 116.957C408.656 116.697 408.793 116.456 408.973 116.249C409.153 116.041 409.372 115.872 409.618 115.749C409.863 115.626 410.131 115.553 410.405 115.534C410.678 115.515 410.953 115.549 411.214 115.636C411.474 115.723 411.715 115.861 411.922 116.041C412.341 116.404 412.598 116.919 412.637 117.472C412.762 119.242 412.825 121.046 412.825 122.829C412.825 123.104 412.771 123.376 412.665 123.63C412.56 123.883 412.405 124.114 412.211 124.308C412.016 124.501 411.785 124.655 411.53 124.759C411.276 124.863 411.004 124.916 410.729 124.915Z" fill="#8C939D"/>
<path d="M438.591 126.135H438.568C438.369 126.132 438.174 126.083 437.996 125.993C437.819 125.902 437.665 125.772 437.546 125.613L424.235 107.712C424.028 107.435 423.939 107.088 423.988 106.746C424.037 106.403 424.219 106.095 424.496 105.887C424.773 105.68 425.12 105.591 425.462 105.64C425.805 105.688 426.113 105.871 426.321 106.148L438.628 122.701L450.88 107.485C451.102 107.232 451.413 107.074 451.748 107.044C452.084 107.015 452.417 107.117 452.68 107.328C452.942 107.539 453.112 107.844 453.155 108.178C453.197 108.512 453.109 108.849 452.908 109.12L439.595 125.645C439.474 125.796 439.322 125.918 439.148 126.003C438.975 126.087 438.784 126.133 438.591 126.135Z" fill="#8C939D"/>
<path d="M265.631 126.135H265.607C265.408 126.132 265.213 126.083 265.036 125.993C264.859 125.902 264.704 125.772 264.585 125.613L251.293 107.709C251.085 107.433 250.996 107.085 251.045 106.743C251.094 106.401 251.277 106.092 251.553 105.885C251.83 105.677 252.178 105.588 252.52 105.637C252.862 105.686 253.171 105.869 253.378 106.145L265.685 122.699L277.938 107.483C278.159 107.229 278.47 107.071 278.806 107.042C279.141 107.012 279.475 107.114 279.737 107.325C279.999 107.537 280.169 107.841 280.212 108.175C280.255 108.509 280.166 108.847 279.966 109.117L266.652 125.642C266.53 125.796 266.375 125.92 266.198 126.005C266.021 126.091 265.827 126.135 265.631 126.135Z" fill="#8C939D"/>
<path d="M469.206 426.032V430.475C469.205 431.308 468.874 432.107 468.285 432.696C467.696 433.286 466.897 433.617 466.063 433.617H411.835C411.002 433.617 410.202 433.286 409.612 432.697C409.023 432.108 408.691 431.308 408.69 430.475V426.032C408.69 425.198 409.022 424.398 409.612 423.808C410.201 423.218 411.001 422.887 411.835 422.887H466.063C466.476 422.886 466.885 422.968 467.267 423.126C467.648 423.284 467.995 423.515 468.287 423.807C468.579 424.099 468.81 424.446 468.968 424.828C469.126 425.21 469.207 425.619 469.206 426.032Z" fill="#FAD332"/>
<path d="M413.272 422.887H411.697V433.617H413.272V422.887Z" fill="#FABA23"/>
<path d="M419.877 422.887H418.303V433.617H419.877V422.887Z" fill="#FABA23"/>
<path d="M426.483 422.887H424.908V433.617H426.483V422.887Z" fill="#FABA23"/>
<path d="M433.088 422.887H431.514V433.617H433.088V422.887Z" fill="#FABA23"/>
<path d="M439.694 422.887H438.119V433.617H439.694V422.887Z" fill="#FABA23"/>
<path d="M446.297 422.887H444.723V433.617H446.297V422.887Z" fill="#FABA23"/>
<path d="M452.903 422.887H451.328V433.617H452.903V422.887Z" fill="#FABA23"/>
<path d="M459.508 422.887H457.934V433.617H459.508V422.887Z" fill="#FABA23"/>
<path d="M466.114 422.887H464.539V433.617H466.114V422.887Z" fill="#FABA23"/>
<path d="M468.465 424.001H409.434C409.73 423.65 410.1 423.369 410.517 423.176C410.933 422.984 411.387 422.885 411.846 422.887H466.074C466.53 422.888 466.979 422.989 467.392 423.181C467.805 423.374 468.171 423.653 468.465 424.001Z" fill="#FABA23"/>
<path d="M468.465 432.503H409.434C409.73 432.854 410.099 433.136 410.516 433.329C410.933 433.521 411.387 433.62 411.846 433.617H466.074C466.53 433.616 466.979 433.516 467.392 433.324C467.805 433.131 468.171 432.851 468.465 432.503Z" fill="#FABA23"/>
<path d="M473 415.312V419.755C472.999 420.589 472.668 421.388 472.078 421.977C471.488 422.567 470.689 422.898 469.855 422.898H415.627C414.794 422.897 413.995 422.566 413.406 421.977C412.816 421.387 412.485 420.588 412.484 419.755V415.312C412.484 414.478 412.815 413.679 413.405 413.089C413.994 412.499 414.793 412.168 415.627 412.167H469.855C470.689 412.168 471.489 412.499 472.078 413.089C472.668 413.678 472.999 414.478 473 415.312Z" fill="#FAD332"/>
<path d="M417.064 412.158H415.489V422.887H417.064V412.158Z" fill="#FABA23"/>
<path d="M423.669 412.158H422.094V422.887H423.669V412.158Z" fill="#FABA23"/>
<path d="M430.275 412.158H428.7V422.887H430.275V412.158Z" fill="#FABA23"/>
<path d="M436.88 412.158H435.306V422.887H436.88V412.158Z" fill="#FABA23"/>
<path d="M443.486 412.158H441.911V422.887H443.486V412.158Z" fill="#FABA23"/>
<path d="M450.091 412.158H448.517V422.887H450.091V412.158Z" fill="#FABA23"/>
<path d="M456.697 412.158H455.122V422.887H456.697V412.158Z" fill="#FABA23"/>
<path d="M463.302 412.158H461.728V422.887H463.302V412.158Z" fill="#FABA23"/>
<path d="M469.908 412.158H468.333V422.887H469.908V412.158Z" fill="#FABA23"/>
<path d="M472.257 413.272H413.228C413.524 412.921 413.893 412.639 414.31 412.446C414.727 412.254 415.181 412.154 415.64 412.156H469.868C470.324 412.158 470.773 412.259 471.185 412.451C471.598 412.644 471.963 412.924 472.257 413.272Z" fill="#FABA23"/>
<path d="M472.257 421.773H413.228C413.524 422.123 413.894 422.405 414.311 422.597C414.727 422.79 415.181 422.889 415.64 422.887H469.868C470.323 422.885 470.773 422.785 471.185 422.593C471.598 422.4 471.963 422.12 472.257 421.773Z" fill="#FABA23"/>
<path d="M470.059 404.59V409.033C470.058 409.867 469.727 410.666 469.137 411.255C468.547 411.845 467.748 412.176 466.914 412.176H412.686C411.853 412.175 411.054 411.844 410.465 411.255C409.875 410.665 409.544 409.866 409.543 409.033V404.59C409.543 404.177 409.624 403.768 409.782 403.386C409.939 403.005 410.171 402.658 410.463 402.366C410.754 402.074 411.101 401.842 411.483 401.684C411.864 401.526 412.273 401.445 412.686 401.445H466.914C467.748 401.445 468.548 401.776 469.138 402.366C469.728 402.956 470.059 403.756 470.059 404.59Z" fill="#FAD332"/>
<path d="M414.123 401.445H412.548V412.174H414.123V401.445Z" fill="#FABA23"/>
<path d="M420.728 401.445H419.154V412.174H420.728V401.445Z" fill="#FABA23"/>
<path d="M427.334 401.445H425.759V412.174H427.334V401.445Z" fill="#FABA23"/>
<path d="M433.939 401.445H432.365V412.174H433.939V401.445Z" fill="#FABA23"/>
<path d="M440.545 401.445H438.97V412.174H440.545V401.445Z" fill="#FABA23"/>
<path d="M447.15 401.445H445.576V412.174H447.15V401.445Z" fill="#FABA23"/>
<path d="M453.756 401.445H452.181V412.174H453.756V401.445Z" fill="#FABA23"/>
<path d="M460.361 401.445H458.787V412.174H460.361V401.445Z" fill="#FABA23"/>
<path d="M466.967 401.445H465.392V412.174H466.967V401.445Z" fill="#FABA23"/>
<path d="M469.316 402.559H410.285C410.581 402.209 410.951 401.928 411.368 401.735C411.784 401.543 412.238 401.444 412.697 401.445H466.914C467.371 401.445 467.823 401.545 468.238 401.737C468.653 401.929 469.02 402.21 469.316 402.559Z" fill="#FABA23"/>
<path d="M469.316 411.062H410.285C410.581 411.412 410.951 411.694 411.367 411.886C411.784 412.079 412.238 412.178 412.697 412.176H466.914C467.372 412.176 467.823 412.077 468.238 411.885C468.653 411.692 469.021 411.411 469.316 411.062Z" fill="#FABA23"/>
<path d="M471.27 394.072V398.515C471.27 399.349 470.938 400.149 470.349 400.739C469.759 401.329 468.959 401.66 468.125 401.66H413.897C413.063 401.659 412.264 401.328 411.674 400.738C411.085 400.148 410.754 399.349 410.754 398.515V394.072C410.754 393.659 410.835 393.25 410.993 392.869C411.151 392.488 411.382 392.141 411.674 391.849C411.966 391.557 412.312 391.326 412.694 391.168C413.075 391.01 413.484 390.929 413.897 390.929H468.125C468.958 390.929 469.758 391.26 470.348 391.85C470.937 392.439 471.269 393.238 471.27 394.072Z" fill="#FAD332"/>
<path d="M415.333 390.929H413.759V401.658H415.333V390.929Z" fill="#FABA23"/>
<path d="M421.939 390.929H420.364V401.658H421.939V390.929Z" fill="#FABA23"/>
<path d="M428.544 390.929H426.97V401.658H428.544V390.929Z" fill="#FABA23"/>
<path d="M435.15 390.929H433.575V401.658H435.15V390.929Z" fill="#FABA23"/>
<path d="M441.755 390.929H440.181V401.658H441.755V390.929Z" fill="#FABA23"/>
<path d="M448.361 390.929H446.786V401.658H448.361V390.929Z" fill="#FABA23"/>
<path d="M454.966 390.929H453.392V401.658H454.966V390.929Z" fill="#FABA23"/>
<path d="M461.572 390.929H459.997V401.658H461.572V390.929Z" fill="#FABA23"/>
<path d="M468.177 390.929H466.603V401.658H468.177V390.929Z" fill="#FABA23"/>
<path d="M470.526 392.043H411.495C411.792 391.693 412.161 391.411 412.578 391.219C412.995 391.026 413.449 390.927 413.908 390.929H468.136C468.591 390.93 469.041 391.031 469.454 391.223C469.867 391.415 470.233 391.695 470.526 392.043Z" fill="#FABA23"/>
<path d="M470.526 400.544H411.495C411.791 400.895 412.161 401.177 412.578 401.37C412.994 401.563 413.448 401.662 413.908 401.66H468.136C468.591 401.659 469.041 401.558 469.454 401.365C469.867 401.173 470.233 400.892 470.526 400.544Z" fill="#FABA23"/>
<path d="M464.508 383.181V387.624C464.508 388.458 464.177 389.257 463.588 389.847C462.999 390.436 462.199 390.767 461.366 390.767H407.138C406.725 390.767 406.316 390.686 405.934 390.528C405.553 390.371 405.206 390.139 404.914 389.847C404.622 389.555 404.39 389.209 404.232 388.828C404.074 388.446 403.993 388.037 403.993 387.624V383.181C403.993 382.348 404.325 381.548 404.915 380.959C405.504 380.37 406.304 380.039 407.138 380.039H461.366C461.779 380.038 462.187 380.119 462.569 380.277C462.95 380.435 463.297 380.666 463.589 380.958C463.88 381.25 464.112 381.597 464.27 381.978C464.428 382.36 464.509 382.768 464.508 383.181Z" fill="#FAD332"/>
<path d="M408.574 380.039H407V390.769H408.574V380.039Z" fill="#FABA23"/>
<path d="M415.18 380.039H413.605V390.769H415.18V380.039Z" fill="#FABA23"/>
<path d="M421.785 380.039H420.211V390.769H421.785V380.039Z" fill="#FABA23"/>
<path d="M428.391 380.039H426.816V390.769H428.391V380.039Z" fill="#FABA23"/>
<path d="M434.994 380.039H433.419V390.769H434.994V380.039Z" fill="#FABA23"/>
<path d="M441.6 380.039H440.025V390.769H441.6V380.039Z" fill="#FABA23"/>
<path d="M448.205 380.039H446.631V390.769H448.205V380.039Z" fill="#FABA23"/>
<path d="M454.811 380.039H453.236V390.769H454.811V380.039Z" fill="#FABA23"/>
<path d="M461.416 380.039H459.842V390.769H461.416V380.039Z" fill="#FABA23"/>
<path d="M463.767 381.153H404.736C405.032 380.802 405.402 380.52 405.819 380.327C406.235 380.135 406.69 380.036 407.149 380.039H461.366C461.823 380.038 462.275 380.138 462.69 380.33C463.104 380.523 463.472 380.803 463.767 381.153Z" fill="#FABA23"/>
<path d="M463.767 389.653H404.736C405.032 390.004 405.402 390.286 405.819 390.478C406.235 390.671 406.69 390.769 407.149 390.767H461.366C461.823 390.767 462.275 390.668 462.69 390.475C463.104 390.283 463.472 390.002 463.767 389.653Z" fill="#FABA23"/>
<path d="M471.16 372.578V377.021C471.16 377.854 470.829 378.654 470.24 379.243C469.65 379.832 468.851 380.164 468.017 380.164H413.789C412.956 380.163 412.157 379.832 411.568 379.242C410.979 378.653 410.647 377.854 410.647 377.021V372.578C410.646 372.165 410.727 371.756 410.885 371.374C411.042 370.992 411.274 370.646 411.566 370.353C411.858 370.061 412.204 369.83 412.586 369.672C412.967 369.514 413.376 369.433 413.789 369.433H468.017C468.43 369.433 468.839 369.514 469.221 369.672C469.602 369.83 469.949 370.061 470.241 370.353C470.533 370.646 470.764 370.992 470.922 371.374C471.08 371.756 471.161 372.165 471.16 372.578Z" fill="#FAD332"/>
<path d="M415.226 369.433H413.651V380.161H415.226V369.433Z" fill="#FABA23"/>
<path d="M421.831 369.433H420.257V380.161H421.831V369.433Z" fill="#FABA23"/>
<path d="M428.437 369.433H426.862V380.161H428.437V369.433Z" fill="#FABA23"/>
<path d="M435.042 369.433H433.468V380.161H435.042V369.433Z" fill="#FABA23"/>
<path d="M441.648 369.433H440.073V380.161H441.648V369.433Z" fill="#FABA23"/>
<path d="M448.253 369.433H446.679V380.161H448.253V369.433Z" fill="#FABA23"/>
<path d="M454.859 369.433H453.284V380.161H454.859V369.433Z" fill="#FABA23"/>
<path d="M461.462 369.433H459.888V380.161H461.462V369.433Z" fill="#FABA23"/>
<path d="M468.068 369.433H466.493V380.161H468.068V369.433Z" fill="#FABA23"/>
<path d="M470.419 370.547H411.388C411.684 370.196 412.053 369.914 412.47 369.722C412.887 369.529 413.341 369.431 413.8 369.433H468.028C468.484 369.434 468.934 369.534 469.346 369.726C469.759 369.919 470.125 370.199 470.419 370.547Z" fill="#FABA23"/>
<path d="M470.419 379.049H411.388C411.684 379.4 412.053 379.682 412.47 379.875C412.887 380.067 413.341 380.166 413.8 380.164H468.028C468.484 380.163 468.934 380.062 469.346 379.87C469.759 379.678 470.125 379.398 470.419 379.049Z" fill="#FABA23"/>
<path d="M468.802 361.814V366.257C468.802 366.67 468.721 367.079 468.563 367.46C468.405 367.842 468.173 368.188 467.881 368.48C467.589 368.772 467.242 369.004 466.861 369.161C466.479 369.319 466.07 369.4 465.658 369.4H411.43C410.596 369.4 409.797 369.069 409.207 368.48C408.618 367.89 408.287 367.091 408.287 366.257V361.814C408.287 361.401 408.368 360.993 408.526 360.611C408.683 360.23 408.915 359.883 409.207 359.591C409.499 359.299 409.845 359.068 410.227 358.91C410.608 358.752 411.017 358.671 411.43 358.671H465.658C466.491 358.671 467.291 359.003 467.881 359.592C468.47 360.181 468.802 360.98 468.802 361.814Z" fill="#FAD332"/>
<path d="M412.866 358.671H411.291V369.402H412.866V358.671Z" fill="#FABA23"/>
<path d="M419.472 358.671H417.897V369.402H419.472V358.671Z" fill="#FABA23"/>
<path d="M426.077 358.671H424.503V369.402H426.077V358.671Z" fill="#FABA23"/>
<path d="M432.683 358.671H431.108V369.402H432.683V358.671Z" fill="#FABA23"/>
<path d="M439.288 358.671H437.713V369.402H439.288V358.671Z" fill="#FABA23"/>
<path d="M445.894 358.671H444.319V369.402H445.894V358.671Z" fill="#FABA23"/>
<path d="M452.499 358.671H450.925V369.402H452.499V358.671Z" fill="#FABA23"/>
<path d="M459.105 358.671H457.53V369.402H459.105V358.671Z" fill="#FABA23"/>
<path d="M465.71 358.671H464.136V369.402H465.71V358.671Z" fill="#FABA23"/>
<path d="M468.055 359.786H409.028C409.324 359.435 409.694 359.153 410.111 358.961C410.527 358.768 410.981 358.67 411.441 358.672H465.669C466.123 358.673 466.572 358.774 466.984 358.966C467.396 359.158 467.761 359.438 468.055 359.786Z" fill="#FABA23"/>
<path d="M468.055 368.286H409.028C409.324 368.637 409.694 368.918 410.111 369.111C410.527 369.303 410.981 369.402 411.441 369.4H465.669C466.123 369.398 466.572 369.298 466.984 369.106C467.396 368.913 467.761 368.633 468.055 368.286Z" fill="#FABA23"/>
<path d="M472.042 351.143V355.586C472.042 356.42 471.711 357.219 471.121 357.809C470.532 358.399 469.733 358.73 468.899 358.731H414.671C414.258 358.731 413.849 358.649 413.468 358.491C413.086 358.333 412.74 358.102 412.448 357.809C412.156 357.517 411.925 357.171 411.767 356.789C411.609 356.408 411.528 355.999 411.528 355.586V351.143C411.528 350.73 411.609 350.321 411.767 349.94C411.925 349.558 412.156 349.212 412.448 348.92C412.74 348.628 413.087 348.396 413.468 348.239C413.849 348.081 414.258 348 414.671 348H468.899C469.312 348 469.721 348.081 470.102 348.239C470.483 348.396 470.83 348.628 471.122 348.92C471.414 349.212 471.645 349.558 471.803 349.94C471.961 350.321 472.042 350.73 472.042 351.143Z" fill="#FAD332"/>
<path d="M416.107 348H414.533V358.731H416.107V348Z" fill="#FABA23"/>
<path d="M422.713 348H421.138V358.731H422.713V348Z" fill="#FABA23"/>
<path d="M429.318 348H427.744V358.731H429.318V348Z" fill="#FABA23"/>
<path d="M435.924 348H434.349V358.731H435.924V348Z" fill="#FABA23"/>
<path d="M442.53 348H440.955V358.731H442.53V348Z" fill="#FABA23"/>
<path d="M449.135 348H447.56V358.731H449.135V348Z" fill="#FABA23"/>
<path d="M455.741 348H454.166V358.731H455.741V348Z" fill="#FABA23"/>
<path d="M462.344 348H460.769V358.731H462.344V348Z" fill="#FABA23"/>
<path d="M468.949 348H467.375V358.731H468.949V348Z" fill="#FABA23"/>
<path d="M471.3 349.114H412.27C412.564 348.765 412.932 348.484 413.347 348.291C413.762 348.099 414.214 347.999 414.671 348H468.899C469.356 347.999 469.808 348.099 470.223 348.291C470.638 348.484 471.006 348.765 471.3 349.114Z" fill="#FABA23"/>
<path d="M471.3 357.617H412.27C412.565 357.966 412.932 358.246 413.347 358.439C413.762 358.631 414.214 358.731 414.671 358.731H468.899C469.356 358.731 469.808 358.631 470.223 358.439C470.637 358.246 471.005 357.966 471.3 357.617Z" fill="#FABA23"/>
<path d="M420.005 432.491C436.98 426.894 446.203 408.596 440.605 391.621C435.008 374.647 416.71 365.424 399.735 371.021C382.761 376.618 373.538 394.917 379.135 411.891C384.732 428.866 403.031 438.089 420.005 432.491Z" fill="#FABA23"/>
<path d="M435.17 409.921C433.428 415.298 430.017 419.979 425.433 423.283C420.849 426.588 415.33 428.344 409.678 428.297C404.027 428.249 398.539 426.4 394.01 423.019C389.482 419.638 386.15 414.9 384.5 409.495C382.849 404.091 382.965 398.3 384.832 392.966C386.698 387.631 390.217 383.032 394.877 379.835C399.538 376.638 405.096 375.011 410.745 375.191C416.393 375.37 421.837 377.346 426.285 380.832C427.008 381.396 427.701 381.998 428.36 382.635C431.926 386.095 434.452 390.484 435.653 395.305C436.855 400.125 436.683 405.186 435.159 409.915L435.17 409.921Z" fill="#FAD332"/>
<path d="M426.285 380.832L389.661 419.016C385.242 413.834 382.974 407.157 383.325 400.355L407.383 375.277C414.164 374.649 420.929 376.636 426.292 380.832H426.285Z" fill="#FAEE6C"/>
<path d="M432.891 388.456L397.541 425.299C395.352 424.158 393.335 422.716 391.547 421.014L428.36 382.635C430.134 384.355 431.659 386.314 432.891 388.456Z" fill="#FAEE6C"/>
<path d="M411.655 376.495C408.515 376.166 407.94 376.475 406.53 379.26C406.881 376.157 406.572 375.584 403.765 374.135C406.905 374.466 407.48 374.155 408.89 371.369C408.561 374.499 408.87 375.073 411.655 376.495Z" fill="white"/>
<path d="M400.541 426.415C397.89 426.137 397.407 426.398 396.216 428.749C396.512 426.13 396.251 425.646 393.883 424.424C396.532 424.703 397.017 424.442 398.208 422.091C397.929 424.742 398.19 425.225 400.541 426.415Z" fill="white"/>
<path d="M484.699 250.433C461.417 250.433 442.468 231.494 442.468 208.202C442.468 184.909 461.409 165.97 484.699 165.97C507.989 165.97 526.931 184.912 526.931 208.202C526.931 231.492 507.979 250.433 484.699 250.433ZM484.699 168.077C462.567 168.077 444.553 186.082 444.553 208.223C444.553 230.363 462.559 248.368 484.699 248.368C506.839 248.368 524.845 230.365 524.845 208.223C524.845 186.08 506.829 168.077 484.699 168.077Z" fill="#E3EAFF"/>
<path d="M484.699 232.175C483.963 232.175 483.234 232.03 482.554 231.749C481.874 231.467 481.256 231.054 480.735 230.534C480.215 230.013 479.802 229.395 479.52 228.715C479.239 228.035 479.094 227.306 479.094 226.57V149.101C479.094 147.615 479.685 146.189 480.736 145.138C481.787 144.087 483.213 143.496 484.699 143.496C486.186 143.496 487.611 144.087 488.662 145.138C489.714 146.189 490.304 147.615 490.304 149.101V226.57C490.304 228.056 489.714 229.482 488.662 230.533C487.611 231.584 486.186 232.175 484.699 232.175Z" fill="#E3EAFF"/>
<path d="M484.699 250.433C461.417 250.433 442.468 231.494 442.468 208.202C442.468 184.909 461.409 165.97 484.699 165.97C507.989 165.97 526.931 184.912 526.931 208.202C526.931 231.492 507.979 250.433 484.699 250.433ZM484.699 168.077C462.567 168.077 444.553 186.082 444.553 208.223C444.553 230.363 462.559 248.368 484.699 248.368C506.839 248.368 524.845 230.365 524.845 208.223C524.845 186.08 506.829 168.077 484.699 168.077Z" fill="#E3EAFF"/>
<path d="M484.699 232.175C483.963 232.175 483.234 232.03 482.554 231.749C481.874 231.467 481.256 231.054 480.735 230.534C480.215 230.013 479.802 229.395 479.52 228.715C479.239 228.035 479.094 227.306 479.094 226.57V149.101C479.094 147.615 479.685 146.189 480.736 145.138C481.787 144.087 483.213 143.496 484.699 143.496C486.186 143.496 487.611 144.087 488.662 145.138C489.714 146.189 490.304 147.615 490.304 149.101V226.57C490.304 228.056 489.714 229.482 488.662 230.533C487.611 231.584 486.186 232.175 484.699 232.175Z" fill="#E3EAFF"/>
<path d="M485.082 236.776H484.869C484.022 236.742 483.195 236.518 482.448 236.119C481.7 235.721 481.053 235.158 480.554 234.474L457.28 204.651C456.421 203.449 456.071 201.956 456.307 200.497C456.544 199.038 457.346 197.731 458.541 196.862C459.736 195.992 461.226 195.629 462.687 195.852C464.147 196.075 465.461 196.866 466.342 198.053L485.437 222.135L503.328 197.706C503.803 197.137 504.386 196.667 505.044 196.324C505.702 195.981 506.421 195.772 507.16 195.71C507.9 195.647 508.644 195.732 509.35 195.959C510.056 196.186 510.71 196.551 511.274 197.033C511.838 197.515 512.301 198.104 512.636 198.766C512.97 199.428 513.17 200.15 513.224 200.89C513.277 201.63 513.183 202.373 512.947 203.077C512.712 203.78 512.339 204.429 511.85 204.987L489.345 234.81C488.819 235.426 488.165 235.921 487.429 236.261C486.693 236.6 485.893 236.776 485.082 236.776Z" fill="#E3EAFF"/>
<path d="M204.89 246.142C181.608 246.142 162.659 227.201 162.659 203.911C162.659 180.621 181.601 161.68 204.89 161.68C228.18 161.68 247.122 180.621 247.122 203.911C247.122 227.201 228.178 246.142 204.89 246.142ZM204.89 163.783C182.758 163.783 164.744 181.789 164.744 203.929C164.744 226.069 182.75 244.075 204.89 244.075C227.031 244.075 245.036 226.069 245.036 203.929C245.036 181.789 227.028 163.783 204.89 163.783Z" fill="#E3EAFF"/>
<path d="M226.502 225.524C238.435 213.591 238.435 194.245 226.502 182.312C214.569 170.38 195.223 170.38 183.29 182.312C171.358 194.245 171.358 213.591 183.29 225.524C195.223 237.457 214.569 237.457 226.502 225.524Z" fill="#E3EAFF"/>
<path d="M228.039 216.737C225.763 220.884 222.414 224.343 218.343 226.752C214.272 229.162 209.628 230.433 204.897 230.433C200.166 230.433 195.522 229.162 191.451 226.752C187.38 224.343 184.031 220.884 181.754 216.737C184.608 211.661 189.048 207.661 194.392 205.35C192.544 203.315 191.326 200.787 190.887 198.074C190.448 195.36 190.807 192.577 191.919 190.063C193.032 187.55 194.85 185.413 197.154 183.913C199.458 182.414 202.148 181.615 204.897 181.615C207.646 181.615 210.336 182.414 212.639 183.913C214.943 185.413 216.762 187.55 217.875 190.063C218.987 192.577 219.346 195.36 218.907 198.074C218.467 200.787 217.25 203.315 215.401 205.35C220.746 207.661 225.185 211.661 228.039 216.737Z" fill="#8C939D"/>
<path d="M528.742 276.317L511.016 266.789L509.517 269.575C508.795 270.923 512.194 274.158 517.113 276.804C522.032 279.45 526.607 280.503 527.332 279.15C527.41 279.041 528.742 276.317 528.742 276.317Z" fill="#FABA23"/>
<path d="M528.761 276.518C528.036 277.865 523.461 276.812 518.542 274.171C513.622 271.531 510.223 268.29 510.948 266.942C511.673 265.595 516.245 266.651 521.164 269.289C526.083 271.927 529.485 275.172 528.761 276.518Z" fill="#FAD332"/>
<path d="M450.023 312.117L432.095 315.029C432.246 315.971 432.399 316.911 432.554 317.85C432.775 319.213 436.986 319.674 441.967 318.853C446.949 318.032 450.805 316.285 450.57 314.922C450.562 314.797 450.023 312.117 450.023 312.117Z" fill="#FABA23"/>
<path d="M450.148 312.253C450.369 313.616 446.514 315.381 441.545 316.184C436.576 316.987 432.35 316.543 432.129 315.18C431.907 313.817 435.765 312.052 440.732 311.249C445.698 310.446 449.936 310.889 450.148 312.253Z" fill="#FAD332"/>
<path d="M471.443 280.665L455.15 272.638L453.886 275.204C453.276 276.442 456.451 279.252 460.974 281.481C465.497 283.71 469.663 284.513 470.273 283.275C470.327 283.16 471.443 280.665 471.443 280.665Z" fill="#FABA23"/>
<path d="M471.467 280.848C470.857 282.086 466.694 281.283 462.171 279.054C457.648 276.825 454.472 274.015 455.083 272.777C455.693 271.538 459.853 272.341 464.379 274.57C468.904 276.799 472.077 279.609 471.467 280.848Z" fill="#FAD332"/>
<path d="M447.155 250.391L428.385 253.439C428.545 254.424 428.705 255.409 428.865 256.392C429.097 257.818 433.508 258.288 438.719 257.435C443.93 256.583 447.968 254.745 447.736 253.319C447.718 253.196 447.155 250.391 447.155 250.391Z" fill="#FABA23"/>
<path d="M447.285 250.532C447.517 251.961 443.479 253.801 438.268 254.649C433.057 255.496 428.646 255.024 428.414 253.606C428.182 252.188 432.218 250.337 437.429 249.49C442.64 248.642 447.053 249.106 447.285 250.532Z" fill="#FAD332"/>
<path d="M260.813 271.043H147.007C141.951 271.043 137.852 275.142 137.852 280.198V304.27C137.852 309.327 141.951 313.426 147.007 313.426H260.813C265.869 313.426 269.968 309.327 269.968 304.27V280.198C269.968 275.142 265.869 271.043 260.813 271.043Z" fill="#E3EAFF"/>
<path d="M178.892 286.273V298.196C178.892 299.737 178.281 301.215 177.192 302.306C176.104 303.397 174.627 304.011 173.086 304.015H150.537C148.994 304.014 147.515 303.401 146.424 302.31C145.334 301.219 144.721 299.739 144.721 298.196V286.273C144.721 285.509 144.871 284.752 145.163 284.046C145.455 283.34 145.883 282.699 146.424 282.158C146.964 281.618 147.605 281.189 148.311 280.897C149.017 280.605 149.773 280.454 150.537 280.454H173.086C174.629 280.455 176.108 281.069 177.199 282.16C178.29 283.251 178.904 284.73 178.905 286.273H178.892Z" fill="#FABA23"/>
<path d="M224.854 297.086H187.437C186.151 297.086 184.917 296.575 184.007 295.665C183.097 294.755 182.586 293.521 182.586 292.234C182.586 290.948 183.097 289.714 184.007 288.804C184.917 287.894 186.151 287.383 187.437 287.383H224.854C225.491 287.383 226.122 287.508 226.71 287.752C227.299 287.996 227.834 288.353 228.284 288.804C228.735 289.254 229.092 289.789 229.336 290.378C229.58 290.966 229.705 291.597 229.705 292.234C229.705 292.871 229.58 293.502 229.336 294.091C229.092 294.68 228.735 295.214 228.284 295.665C227.834 296.115 227.299 296.473 226.71 296.716C226.122 296.96 225.491 297.086 224.854 297.086Z" fill="#8C939D"/>
<path d="M258.264 297.086H239.512C238.226 297.085 236.993 296.574 236.084 295.664C235.174 294.754 234.663 293.521 234.663 292.234C234.663 290.948 235.174 289.715 236.084 288.805C236.993 287.895 238.226 287.384 239.512 287.383H258.264C259.55 287.384 260.783 287.895 261.692 288.805C262.602 289.715 263.112 290.948 263.112 292.234C263.112 293.521 262.602 294.754 261.692 295.664C260.783 296.574 259.55 297.085 258.264 297.086Z" fill="#1C1B2D"/>
<path d="M176.569 281.624L147.317 303.05C146.515 302.52 145.857 301.799 145.402 300.952C144.947 300.105 144.71 299.158 144.711 298.196V286.273C144.71 285.509 144.86 284.752 145.153 284.046C145.445 283.34 145.873 282.699 146.413 282.158C146.953 281.618 147.594 281.189 148.3 280.897C149.006 280.605 149.763 280.454 150.527 280.454H173.086C174.344 280.455 175.566 280.866 176.569 281.624Z" fill="#FAD332"/>
<path d="M171.327 297.31C171.327 298.083 171.097 298.839 170.668 299.482C170.238 300.126 169.627 300.627 168.913 300.923C168.198 301.219 167.412 301.296 166.654 301.145C165.895 300.994 165.198 300.622 164.651 300.075C164.105 299.528 163.732 298.831 163.581 298.073C163.43 297.314 163.508 296.528 163.804 295.814C164.1 295.099 164.601 294.488 165.244 294.059C165.887 293.629 166.643 293.4 167.417 293.4C168.454 293.4 169.448 293.812 170.182 294.545C170.915 295.278 171.327 296.273 171.327 297.31Z" fill="#E62552"/>
<path d="M175.972 297.31C175.972 298.083 175.743 298.839 175.313 299.482C174.884 300.126 174.273 300.627 173.558 300.923C172.844 301.219 172.058 301.296 171.299 301.145C170.54 300.994 169.844 300.622 169.297 300.075C168.75 299.528 168.378 298.831 168.227 298.073C168.076 297.314 168.153 296.528 168.449 295.814C168.745 295.099 169.246 294.488 169.889 294.059C170.532 293.629 171.288 293.4 172.062 293.4C173.099 293.4 174.094 293.812 174.827 294.545C175.56 295.278 175.972 296.273 175.972 297.31Z" fill="#8C939D"/>
<path d="M590.361 243.913C592.634 236.794 592.079 229.886 587.082 225.235C582.017 220.522 573.899 222 573.899 222C573.899 222 568.218 218.298 561.099 223.144C553.98 227.991 556.928 234.474 553.539 238.444C551.532 240.79 544.462 239.68 544.154 248.835C544.066 251.476 546.683 253.895 549.206 254.68C553.638 256.059 558.549 255.159 559.657 257.503C563.471 265.566 578.124 265.814 581.25 261.014C582.22 259.526 593.453 265.558 594.921 254.187C595.661 248.426 588.328 250.277 590.361 243.913Z" fill="#020205"/>
<path d="M561.347 241.114C560.424 249.88 565.257 257.573 572.142 258.298C579.026 259.023 585.356 252.503 586.276 243.736C587.196 234.969 582.366 227.279 575.481 226.554C568.596 225.829 562.269 232.349 561.347 241.114Z" fill="#F37A50"/>
<path d="M582.551 244.808C582.58 245.044 582.678 245.267 582.834 245.448C582.989 245.629 583.195 245.759 583.425 245.823C583.655 245.887 583.899 245.881 584.125 245.806C584.351 245.731 584.551 245.59 584.697 245.402C584.844 245.214 584.931 244.986 584.948 244.748C584.965 244.51 584.911 244.273 584.793 244.065C584.674 243.858 584.497 243.691 584.284 243.584C584.071 243.478 583.83 243.437 583.594 243.468C583.278 243.509 582.992 243.672 582.797 243.923C582.602 244.174 582.513 244.492 582.551 244.808Z" fill="black"/>
<path d="M572.859 243.848C572.89 244.104 572.996 244.345 573.164 244.54C573.333 244.736 573.555 244.877 573.803 244.946C574.051 245.015 574.315 245.009 574.56 244.928C574.804 244.848 575.02 244.696 575.179 244.493C575.338 244.291 575.433 244.045 575.452 243.788C575.472 243.531 575.414 243.274 575.288 243.049C575.161 242.825 574.97 242.643 574.74 242.527C574.51 242.411 574.251 242.365 573.995 242.396C573.825 242.417 573.661 242.471 573.512 242.555C573.363 242.639 573.232 242.752 573.126 242.887C573.021 243.021 572.943 243.176 572.897 243.341C572.851 243.506 572.838 243.678 572.859 243.848Z" fill="black"/>
<path d="M571.86 242.357C571.96 242.345 572.052 242.298 572.121 242.224C573.208 241.114 574.962 241.442 574.988 241.442C575.104 241.46 575.222 241.433 575.318 241.366C575.415 241.299 575.481 241.197 575.504 241.083C575.527 240.968 575.504 240.849 575.441 240.75C575.378 240.651 575.279 240.581 575.166 240.553C575.074 240.535 572.916 240.118 571.482 241.596C571.398 241.681 571.35 241.796 571.35 241.916C571.35 242.036 571.398 242.152 571.482 242.237C571.532 242.285 571.592 242.321 571.657 242.341C571.723 242.362 571.792 242.368 571.86 242.357Z" fill="#020205"/>
<path d="M585.609 244.038C585.658 244.032 585.707 244.018 585.752 243.997C585.86 243.943 585.942 243.85 585.981 243.736C586.02 243.622 586.013 243.498 585.961 243.389C585.709 242.876 585.324 242.439 584.845 242.126C584.367 241.812 583.813 241.632 583.242 241.606C583.122 241.606 583.006 241.654 582.921 241.739C582.836 241.824 582.788 241.94 582.788 242.06C582.788 242.18 582.836 242.296 582.921 242.381C583.006 242.466 583.122 242.513 583.242 242.513C583.645 242.537 584.035 242.667 584.371 242.89C584.707 243.114 584.978 243.423 585.155 243.786C585.195 243.87 585.26 243.939 585.342 243.984C585.423 244.03 585.516 244.049 585.609 244.038Z" fill="#020205"/>
<path d="M580.95 247.018C581.347 247.878 581.659 248.733 582.121 249.317C582.196 249.413 582.231 249.534 582.219 249.656C582.207 249.777 582.15 249.889 582.058 249.969C581.276 250.652 579.626 250.855 578.635 250.918C578.606 250.919 578.577 250.91 578.553 250.891C578.529 250.873 578.513 250.847 578.506 250.818C578.5 250.789 578.504 250.759 578.517 250.732C578.531 250.706 578.553 250.685 578.581 250.673C579.303 250.42 579.973 250.034 580.554 249.536C580.619 249.475 580.668 249.399 580.698 249.314C580.728 249.23 580.737 249.14 580.726 249.051C580.671 248.637 580.57 247.795 580.541 247.115C580.539 247.065 580.554 247.015 580.584 246.975C580.614 246.935 580.657 246.907 580.706 246.896C580.754 246.884 580.805 246.89 580.85 246.913C580.895 246.935 580.93 246.972 580.95 247.018Z" fill="#DE623C"/>
<path d="M571.654 250.981C571.632 250.913 571.631 250.841 571.651 250.772C571.67 250.704 571.71 250.643 571.764 250.597C571.818 250.551 571.884 250.522 571.955 250.514C572.025 250.506 572.097 250.518 572.16 250.55C574.188 251.589 576.345 252.351 578.575 252.818C578.644 252.834 578.707 252.869 578.756 252.92C578.805 252.971 578.839 253.035 578.851 253.105C578.864 253.174 578.856 253.246 578.828 253.311C578.801 253.376 578.754 253.431 578.695 253.47C578.102 253.907 577.411 254.192 576.683 254.3C575.954 254.409 575.21 254.337 574.516 254.091C573.822 253.846 573.198 253.434 572.699 252.891C572.201 252.349 571.843 251.693 571.657 250.981H571.654Z" fill="white"/>
<path d="M561.443 240.345C569.378 242.008 582.707 238.037 584.975 234.383C585.192 229.106 578.231 223.955 573.044 224.602C567.856 225.248 560.351 233.223 561.443 240.345Z" fill="#020205"/>
<path d="M584.798 264.038C592.963 266.077 606.923 285.154 608.229 299.463C603.747 300.391 598.628 296.82 598.628 296.82L587.535 280.866L584.798 264.038Z" fill="#DE623C"/>
<path d="M592.694 427.724L597.069 410.495L586.216 409.002C585.843 417.151 585.236 425.164 585.288 427.343L592.694 427.724Z" fill="#F37A50"/>
<path d="M566.8 408.905H555.471C555.843 411.619 557.329 426.322 557.329 426.322C558.286 428.493 566.73 427.998 566.73 426.775C566.091 424.129 566.748 409.244 566.8 408.905Z" fill="#F37A50"/>
<path d="M585.327 415.641L596.5 417.291L604.264 370.952C602.665 353.368 587.186 315.947 587.186 315.947L569.738 322.057L569.313 338.553L590.325 374.129C587.58 381.022 585.7 403.266 585.327 415.641Z" fill="#141327"/>
<path d="M539.961 296H426.155C421.099 296 417 300.099 417 305.155V329.227C417 334.284 421.099 338.383 426.155 338.383H539.961C545.017 338.383 549.116 334.284 549.116 329.227V305.155C549.116 300.099 545.017 296 539.961 296Z" fill="#E3EAFF"/>
<path d="M504.002 322.043H466.585C465.299 322.043 464.065 321.532 463.155 320.622C462.245 319.712 461.734 318.478 461.734 317.191C461.735 315.905 462.246 314.672 463.156 313.763C464.066 312.853 465.299 312.342 466.585 312.342H504.002C505.288 312.342 506.522 312.853 507.431 313.763C508.341 314.672 508.853 315.905 508.853 317.191C508.853 317.828 508.728 318.459 508.484 319.048C508.24 319.636 507.883 320.171 507.432 320.622C506.982 321.072 506.447 321.43 505.858 321.673C505.27 321.917 504.639 322.043 504.002 322.043Z" fill="#8C939D"/>
<path d="M537.412 322.043H518.66C517.374 322.042 516.141 321.531 515.232 320.621C514.322 319.711 513.812 318.477 513.812 317.191C513.812 315.905 514.322 314.672 515.232 313.763C516.141 312.853 517.374 312.342 518.66 312.342H537.412C538.698 312.342 539.931 312.853 540.84 313.763C541.75 314.672 542.26 315.905 542.26 317.191C542.26 318.477 541.75 319.711 540.84 320.621C539.931 321.531 538.698 322.042 537.412 322.043Z" fill="#1C1B2D"/>
<path d="M455.717 306.581L426.466 328.007C425.663 327.477 425.005 326.756 424.55 325.909C424.095 325.062 423.858 324.115 423.859 323.153V311.229C423.858 310.465 424.008 309.709 424.301 309.003C424.593 308.297 425.021 307.656 425.561 307.115C426.101 306.575 426.743 306.146 427.448 305.854C428.154 305.561 428.911 305.411 429.675 305.411H452.234C453.492 305.412 454.715 305.823 455.717 306.581Z" fill="#E62552"/>
<path d="M458.04 311.229V323.153C458.04 324.694 457.429 326.172 456.34 327.263C455.252 328.354 453.775 328.968 452.235 328.972H429.685C428.142 328.971 426.663 328.358 425.572 327.267C424.482 326.176 423.869 324.696 423.869 323.153V311.229C423.869 310.465 424.019 309.709 424.311 309.003C424.603 308.297 425.032 307.656 425.572 307.115C426.112 306.575 426.753 306.146 427.459 305.854C428.165 305.561 428.921 305.411 429.685 305.411H452.235C453.777 305.412 455.256 306.026 456.347 307.117C457.438 308.208 458.052 309.687 458.053 311.229H458.04Z" fill="#D6224C"/>
<path d="M446.654 326.188C448.814 326.125 450.514 324.323 450.451 322.163C450.387 320.002 448.585 318.303 446.425 318.366C444.264 318.429 442.565 320.232 442.628 322.392C442.691 324.552 444.494 326.252 446.654 326.188Z" fill="#FAC832"/>
<path d="M576.691 317.198C576.532 316.113 576.477 315.772 575.572 315.23L558.818 310.477L554.827 314.416C551.052 328.128 553.39 347.208 556.37 362.346C552.009 375.451 553.714 402.463 555.471 415.159H567.387C568.078 406.671 567.861 390.931 567.908 383.326C569.451 377.216 570.94 370.699 572.269 363.84C573.972 355.084 576.102 346.596 576.685 338.652C577.222 331.116 577.382 323.037 576.691 317.198Z" fill="#1C1B2D"/>
<path d="M555.554 261.948C551.615 264.534 535.012 286.134 544.162 303.918C544.584 304.153 551.912 291.736 551.912 291.736L560.565 274.612L555.554 261.948Z" fill="#F37A50"/>
<path d="M563.891 250.709L574.285 256.622C574.285 256.622 575.21 260.832 575.669 262.198C576.62 265.019 572.976 266.252 569.897 264.497C568.002 263.401 566.291 262.016 564.824 260.391L563.891 250.709Z" fill="#F37A50"/>
<path d="M589.764 318.697C589.764 318.697 585.471 323.778 584.746 324.171L580.901 319.974L580.875 320.047L579.962 322.448L578.896 325.253C578.004 325.253 551.198 319.257 551.198 319.257C551.253 316.841 553.523 309.012 557.194 300.681C556.302 293.621 557.16 286.285 556.878 282.216C559.045 271.301 557.499 267.112 555.546 261.969L562.348 259.961L574.6 264.278L575.51 261.327C575.51 261.327 583.187 263.168 584.801 264.059L587.699 276.163L587.074 301.875C587.074 301.875 588.033 312.208 589.764 318.697Z" fill="#9C9C9C"/>
<path d="M564.72 258.58L559.923 260.616C560.429 266.374 573.317 269.818 573.317 269.818L574.597 264.257L564.72 258.58Z" fill="#3E3C5E"/>
<path d="M574.597 264.257L578.393 268.475C578.393 268.475 581.675 265.086 580.479 262.983C579.282 260.879 574.942 259.471 574.942 259.471L574.597 264.257Z" fill="#3E3C5E"/>
<path d="M590.053 427.445C591.19 424.466 593.614 424.134 593.614 424.134C598.33 430.422 609.913 426.564 609.516 435.083C591.907 434.976 584.589 435.083 584.589 435.083C584.613 433.131 584.96 428.493 585.372 426.676L586.289 426.84L590.053 427.445Z" fill="#1C1B2D"/>
<path d="M584.6 434.838H609.537V436.316C609.537 436.589 609.429 436.85 609.236 437.043C609.044 437.235 608.783 437.344 608.51 437.344H585.63C585.357 437.344 585.095 437.235 584.901 437.042C584.708 436.849 584.6 436.587 584.6 436.314V434.838Z" fill="#1C1B2D"/>
<path d="M580.875 320.034L579.962 322.435C579.136 316.908 576.052 293.785 577.793 287.399C579.425 281.403 577.384 275.081 575.408 268.965C574.928 267.472 574.425 265.926 573.998 264.429L574.597 264.257L575.197 264.085C575.619 265.563 576.115 267.099 576.594 268.582C578.625 274.87 580.721 281.374 578.992 287.73C577.494 293.241 579.793 312.224 580.875 320.034Z" fill="#3E3C5E"/>
<path d="M568.747 435.154C568.747 435.154 567.335 429.88 567.209 429.202C567.069 428.42 566.652 426.611 566.568 425.675C566.547 425.446 564.12 423.962 562.267 423.965C559.754 423.965 557.468 425.422 557.421 425.699C557.123 427.458 557.116 429.528 556.639 431.241C556.281 432.516 555.312 435.487 555.312 435.487L568.747 435.154Z" fill="#1C1B2D"/>
<path d="M568.748 434.744C568.419 435.787 564.352 434.583 561.386 434.583C558.896 434.583 555.674 435.55 555.309 435.175C554.686 436.275 555.197 438.564 555.197 438.564C555.197 438.564 557.804 438.699 560.906 438.564C564.008 438.428 567.616 438.629 568.972 438.225C569.827 436.786 568.748 434.744 568.748 434.744Z" fill="#1C1B2D"/>
<path d="M573.951 286.158C573.951 286.158 552.499 307.662 544.162 303.926C541.414 300.211 547.249 292.756 552.715 290.258C558.182 287.761 567.296 283.848 567.296 283.848L573.951 286.158Z" fill="#F37A50"/>
<path d="M578.015 278.851L586.928 271.974C587.024 271.901 587.133 271.848 587.25 271.819C587.367 271.789 587.489 271.785 587.608 271.804L593.68 272.907C593.854 272.936 594.201 273.994 594.068 274.101L588.007 277.751C587.978 277.773 587.944 277.788 587.908 277.792L578.38 279.427C578.176 279.44 577.853 278.976 578.015 278.851Z" fill="#F9CD2D"/>
<path d="M578.471 279.51L586.949 273.04C587.045 272.967 587.155 272.914 587.273 272.885C587.39 272.856 587.512 272.851 587.632 272.87L593.904 273.931C593.942 273.938 593.978 273.956 594.007 273.982C594.035 274.009 594.056 274.043 594.065 274.081C594.074 274.119 594.073 274.159 594.06 274.196C594.047 274.233 594.023 274.265 593.992 274.289L588.031 278.809C588.001 278.831 587.966 278.846 587.929 278.851L578.617 279.87C578.573 279.876 578.529 279.867 578.49 279.844C578.452 279.822 578.422 279.787 578.405 279.746C578.389 279.705 578.386 279.66 578.398 279.617C578.41 279.574 578.436 279.537 578.471 279.51Z" fill="#F9F93A"/>
<path d="M567.063 283.965L572.071 281.458C572.071 281.458 575.246 278.001 576.242 276.969C577.512 276.598 579.98 275.535 580.484 275.569C580.947 275.638 581.403 275.753 581.844 275.913L578.946 278.183C578.946 278.183 580.126 278.728 581.784 278.066C583.442 277.404 586.532 275.37 587.723 276.098L588.101 276.585C588.101 276.585 589.144 275.777 589.774 276.325C591.719 278.058 579.183 285.529 579.183 285.529L573.969 286.155L567.063 283.965Z" fill="#F37A50"/>
<path d="M587.872 274.429C587.52 274.669 587.089 274.646 586.894 274.372C586.698 274.098 586.844 273.681 587.196 273.441C587.548 273.202 587.978 273.225 588.174 273.496C588.369 273.767 588.226 274.187 587.872 274.429Z" fill="#F9CD2D"/>
<path d="M608.229 299.463C608.229 299.463 597.108 312.18 589.365 313.978C588.906 311.429 588.482 309.476 588.482 309.476L599.034 295.584L608.229 299.463Z" fill="#DE623C"/>
<path d="M587.96 314.677C587.998 314.57 588.051 314.47 588.119 314.38L588.064 314.364C586.964 313.999 586.286 313.061 586.55 312.279C586.592 312.151 586.657 312.033 586.743 311.929C586.161 311.478 585.867 310.84 586.054 310.279C586.133 310.057 586.275 309.863 586.464 309.721C585.851 309.309 585.538 308.619 585.747 307.99C586.008 307.208 586.983 306.815 587.921 307.127C588.859 307.44 589.407 308.329 589.144 309.116C589.08 309.314 588.969 309.493 588.82 309.638C589.735 310.06 590.27 310.892 590.033 311.603C589.991 311.731 589.924 311.85 589.837 311.953C590.421 312.404 590.713 313.042 590.528 313.603C590.456 313.808 590.329 313.988 590.16 314.124C590.718 314.468 591.013 315.078 590.828 315.631C590.606 316.296 589.785 316.624 589.003 316.361C588.221 316.098 587.738 315.342 587.96 314.677Z" fill="#DE623C"/>
<path d="M563.946 241.648C565.236 243.663 564.947 246.153 563.297 247.211C561.646 248.269 559.266 247.49 557.973 245.475C556.68 243.46 556.975 240.97 558.622 239.912C560.27 238.853 562.655 239.633 563.946 241.648Z" fill="#F37A50"/>
<path d="M561.263 246.015C561.343 246.004 561.42 245.976 561.487 245.931C562.494 245.264 562.919 244.263 562.627 243.256C562.482 242.752 562.184 242.305 561.774 241.978C561.364 241.651 560.862 241.46 560.338 241.432C560.269 241.43 560.201 241.442 560.137 241.467C560.074 241.492 560.015 241.529 559.966 241.577C559.917 241.624 559.877 241.681 559.85 241.744C559.822 241.807 559.807 241.874 559.806 241.943C559.805 242.011 559.817 242.079 559.842 242.143C559.867 242.207 559.904 242.265 559.951 242.314C559.999 242.364 560.055 242.403 560.118 242.431C560.181 242.458 560.248 242.473 560.317 242.474C560.615 242.499 560.899 242.614 561.132 242.803C561.364 242.991 561.534 243.246 561.62 243.533C561.784 244.093 561.532 244.63 560.909 245.045C560.851 245.083 560.802 245.131 560.764 245.188C560.725 245.245 560.699 245.309 560.685 245.377C560.671 245.444 560.671 245.513 560.685 245.581C560.698 245.648 560.724 245.712 560.763 245.769C560.814 245.853 560.889 245.921 560.977 245.964C561.066 246.008 561.165 246.025 561.263 246.015Z" fill="#DE623C"/>
<path d="M628.508 337.349L631.43 315.576C631.43 315.576 643.669 312.146 654.261 323.845C660.825 331.098 673.932 331.225 673.932 331.225L670.994 353.123C670.994 353.123 654.548 354.726 647.181 346.309C639.381 337.396 628.508 337.349 628.508 337.349Z" fill="#D4DEFF"/>
<path d="M659.269 338.423C657.063 342.333 651.571 343.426 647.001 340.85C642.431 338.274 640.517 333.014 642.723 329.098C644.928 325.183 650.424 324.093 654.993 326.669C659.563 329.244 661.487 334.505 659.269 338.423Z" fill="#E3EAFF"/>
<path d="M260.813 322.393H147.007C141.951 322.393 137.852 326.492 137.852 331.549V355.62C137.852 360.677 141.951 364.776 147.007 364.776H260.813C265.869 364.776 269.968 360.677 269.968 355.62V331.549C269.968 326.492 265.869 322.393 260.813 322.393Z" fill="#E3EAFF"/>
<path d="M224.854 348.436H187.437C186.151 348.436 184.917 347.925 184.007 347.015C183.097 346.105 182.586 344.871 182.586 343.585C182.587 342.298 183.098 341.065 184.008 340.156C184.917 339.247 186.151 338.736 187.437 338.736H224.854C226.14 338.736 227.374 339.247 228.283 340.156C229.193 341.065 229.704 342.298 229.705 343.585C229.705 344.222 229.58 344.853 229.336 345.441C229.092 346.03 228.735 346.565 228.284 347.015C227.834 347.466 227.299 347.823 226.71 348.067C226.122 348.31 225.491 348.436 224.854 348.436Z" fill="#8C939D"/>
<path d="M258.264 348.436H239.512C238.226 348.435 236.993 347.924 236.084 347.014C235.174 346.104 234.663 344.871 234.663 343.585C234.663 342.299 235.174 341.065 236.084 340.156C236.993 339.247 238.226 338.736 239.512 338.736H258.264C259.549 338.736 260.783 339.247 261.692 340.156C262.601 341.065 263.112 342.299 263.112 343.585C263.112 344.871 262.602 346.104 261.692 347.014C260.783 347.924 259.55 348.435 258.264 348.436Z" fill="#1C1B2D"/>
<path d="M176.569 332.975L147.317 354.401C146.515 353.87 145.857 353.149 145.402 352.302C144.947 351.455 144.71 350.508 144.711 349.547V337.623C144.71 336.859 144.86 336.102 145.153 335.396C145.445 334.69 145.873 334.049 146.413 333.509C146.953 332.968 147.594 332.54 148.3 332.247C149.006 331.955 149.763 331.804 150.527 331.804H173.086C174.344 331.805 175.566 332.216 176.569 332.975Z" fill="#E62552"/>
<path d="M178.892 337.623V349.547C178.892 351.087 178.281 352.566 177.192 353.656C176.104 354.747 174.627 355.362 173.086 355.365H150.537C148.994 355.364 147.515 354.751 146.424 353.66C145.334 352.569 144.721 351.089 144.721 349.547V337.623C144.721 336.859 144.871 336.102 145.163 335.396C145.455 334.69 145.883 334.049 146.424 333.509C146.964 332.968 147.605 332.54 148.311 332.247C149.017 331.955 149.773 331.804 150.537 331.804H173.086C174.629 331.806 176.108 332.419 177.199 333.51C178.29 334.601 178.904 336.08 178.905 337.623H178.892Z" fill="#D6224C"/>
<path d="M167.506 352.582C169.666 352.518 171.366 350.716 171.302 348.556C171.239 346.396 169.437 344.696 167.276 344.759C165.116 344.823 163.417 346.625 163.48 348.785C163.543 350.945 165.346 352.645 167.506 352.582Z" fill="#FAC832"/>
<path d="M175.972 348.66C175.972 349.434 175.743 350.19 175.313 350.833C174.884 351.476 174.273 351.977 173.558 352.273C172.844 352.569 172.058 352.646 171.299 352.495C170.54 352.344 169.844 351.972 169.297 351.425C168.75 350.878 168.378 350.182 168.227 349.423C168.076 348.665 168.153 347.878 168.449 347.164C168.745 346.449 169.246 345.839 169.889 345.409C170.532 344.979 171.288 344.75 172.062 344.75C173.099 344.75 174.094 345.162 174.827 345.895C175.56 346.629 175.972 347.623 175.972 348.66Z" fill="#8C939D"/>
<path d="M260.813 373.746H147.007C141.951 373.746 137.852 377.845 137.852 382.902V406.973C137.852 412.03 141.951 416.129 147.007 416.129H260.813C265.869 416.129 269.968 412.03 269.968 406.973V382.902C269.968 377.845 265.869 373.746 260.813 373.746Z" fill="#E3EAFF"/>
<path d="M178.892 388.976V400.899C178.892 402.44 178.281 403.918 177.192 405.009C176.104 406.1 174.627 406.714 173.086 406.718H150.537C148.994 406.717 147.515 406.104 146.424 405.013C145.334 403.922 144.721 402.442 144.721 400.899V388.976C144.721 388.212 144.871 387.455 145.163 386.749C145.455 386.043 145.883 385.402 146.424 384.861C146.964 384.321 147.605 383.892 148.311 383.6C149.017 383.308 149.773 383.157 150.537 383.157H173.086C174.629 383.158 176.108 383.772 177.199 384.863C178.29 385.954 178.904 387.433 178.905 388.976H178.892Z" fill="#FABA23"/>
<path d="M224.854 399.786H187.437C186.151 399.786 184.917 399.275 184.008 398.366C183.098 397.457 182.587 396.224 182.586 394.937C182.588 393.652 183.1 392.42 184.01 391.512C184.919 390.604 186.152 390.094 187.437 390.094H224.854C225.491 390.094 226.122 390.219 226.71 390.463C227.299 390.707 227.834 391.064 228.284 391.515C228.735 391.965 229.092 392.5 229.336 393.089C229.58 393.677 229.705 394.308 229.705 394.945C229.702 396.23 229.19 397.461 228.28 398.369C227.371 399.277 226.139 399.786 224.854 399.786Z" fill="#8C939D"/>
<path d="M258.264 399.786H239.512C238.226 399.786 236.993 399.275 236.084 398.366C235.174 397.457 234.663 396.223 234.663 394.937C234.663 393.651 235.174 392.418 236.084 391.508C236.993 390.598 238.226 390.087 239.512 390.086H258.264C259.55 390.087 260.783 390.598 261.692 391.508C262.602 392.418 263.112 393.651 263.112 394.937C263.112 396.223 262.601 397.457 261.692 398.366C260.783 399.275 259.549 399.786 258.264 399.786Z" fill="#1C1B2D"/>
<path d="M176.569 384.327L147.317 405.753C146.515 405.223 145.857 404.502 145.402 403.655C144.947 402.808 144.71 401.861 144.711 400.899V388.976C144.71 388.212 144.86 387.455 145.153 386.749C145.445 386.043 145.873 385.402 146.413 384.861C146.953 384.321 147.594 383.892 148.3 383.6C149.006 383.308 149.763 383.157 150.527 383.157H173.086C174.344 383.158 175.566 383.569 176.569 384.327Z" fill="#FAD332"/>
<path d="M171.327 400.013C171.327 400.786 171.097 401.542 170.668 402.185C170.238 402.828 169.627 403.33 168.913 403.626C168.198 403.922 167.412 403.999 166.654 403.848C165.895 403.697 165.198 403.325 164.651 402.778C164.105 402.231 163.732 401.534 163.581 400.776C163.43 400.017 163.508 399.231 163.804 398.517C164.1 397.802 164.601 397.191 165.244 396.762C165.887 396.332 166.643 396.103 167.417 396.103C168.454 396.103 169.448 396.515 170.182 397.248C170.915 397.981 171.327 398.976 171.327 400.013Z" fill="#E62552"/>
<path d="M175.972 400.013C175.972 400.786 175.743 401.542 175.313 402.185C174.884 402.828 174.273 403.33 173.558 403.626C172.844 403.922 172.058 403.999 171.299 403.848C170.54 403.697 169.844 403.325 169.297 402.778C168.75 402.231 168.378 401.534 168.227 400.776C168.076 400.017 168.153 399.231 168.449 398.517C168.745 397.802 169.246 397.191 169.889 396.762C170.532 396.332 171.288 396.103 172.062 396.103C173.099 396.103 174.094 396.515 174.827 397.248C175.56 397.981 175.972 398.976 175.972 400.013Z" fill="#8C939D"/>
<defs>
<clipPath id="clip0_27_928">
<rect width="88" height="73" fill="white" transform="translate(467 358)"/>
</clipPath>
</defs>
</svg>
